<?xml version="1.0" ?><svg height="60px" version="1.1" viewBox="0 0 60 60" width="60px" xmlns="http://www.w3.org/2000/svg" xmlns:sketch="http://www.bohemiancoding.com/sketch/ns" xmlns:xlink="http://www.w3.org/1999/xlink"><title/><desc/><defs/><g fill="none" fill-rule="evenodd" id="Page-1" stroke="none" stroke-width="1"><g fill="#1B1A19" id="Fill-218"><path d="M59,0 L1,0 C0.448,0 0,0.447 0,1 L0,59 C0,59.553 0.448,60 1,60 L59,60 C59.552,60 60,59.553 60,59 L60,1 C60,0.447 59.552,0 59,0 L59,0 Z M42,41 C41.449,41 41,40.552 41,40 C41,38.897 41.897,38 43,38 L51,38 C51.552,38 52,37.553 52,37 C52,36.447 51.552,36 51,36 L40.5,36 C39.673,36 39,35.327 39,34.5 C39,33.673 39.673,33 40.5,33 L51,33 C51.552,33 52,32.553 52,32 C52,31.447 51.552,31 51,31 L40.5,31 C39.673,31 39,30.327 39,29.5 C39,28.673 39.673,28 40.5,28 L51,28 C51.552,28 52,27.553 52,27 C52,26.447 51.552,26 51,26 L42.5,26 C41.673,26 41,25.327 41,24.5 C41,23.673 41.673,23 42.5,23 L50,23 C54.426,23 55.317,23.737 58,26.415 L58,43.765 L56.914,42.794 C56.737,42.635 56.544,42.491 56.342,42.366 C54.89,41.473 53.216,41 51.5,41 L42,41 L42,41 Z M42.5,21 C40.57,21 39,22.57 39,24.5 C39,25.112 39.172,25.678 39.448,26.179 C38.034,26.629 37,27.939 37,29.5 C37,30.48 37.407,31.364 38.058,32 C37.407,32.636 37,33.52 37,34.5 C37,36.121 38.108,37.488 39.606,37.885 C39.222,38.498 39,39.224 39,40 C39,41.654 40.346,43 42,43 L43,43 L43,58 L34,58 L34,2 L43,2 L43,21 L42.5,21 L42.5,21 Z M58,23.637 C56.14,21.945 54.569,21.137 51,21.017 L51,2 L58,2 L58,23.637 L58,23.637 Z M45,2 L49,2 L49,21 L45,21 L45,2 Z M8.499,41 C6.784,41 5.11,41.473 3.659,42.366 C3.456,42.491 3.263,42.635 3.085,42.794 L2,43.765 L2,26.415 C4.683,23.737 5.574,23 10,23 L17.5,23 C18.327,23 19,23.673 19,24.5 C19,25.327 18.327,26 17.5,26 L9,26 C8.448,26 8,26.447 8,27 C8,27.553 8.448,28 9,28 L19.5,28 C20.327,28 21,28.673 21,29.5 C21,30.327 20.327,31 19.5,31 L9,31 C8.448,31 8,31.447 8,32 C8,32.553 8.448,33 9,33 L19.5,33 C20.327,33 21,33.673 21,34.5 C21,35.327 20.327,36 19.5,36 L9,36 C8.448,36 8,36.447 8,37 C8,37.553 8.448,38 9,38 L16.999,38 C18.102,38 19,38.897 19,40 C19,40.552 18.551,41 18,41 L8.499,41 L8.499,41 Z M18,43 C19.654,43 21,41.654 21,40 C21,39.224 20.778,38.498 20.394,37.885 C21.892,37.488 23,36.121 23,34.5 C23,33.52 22.593,32.636 21.942,32 C22.593,31.364 23,30.48 23,29.5 C23,27.939 21.966,26.629 20.551,26.179 C20.828,25.678 21,25.112 21,24.5 C21,22.57 19.43,21 17.5,21 L17,21 L17,2 L26,2 L26,58 L17,58 L17,43 L18,43 L18,43 Z M11,2 L15,2 L15,21 L11,21 L11,2 Z M9,2 L9,21.017 C5.431,21.137 3.86,21.945 2,23.637 L2,2 L9,2 L9,2 Z M2,46.447 L4.418,44.284 C4.508,44.205 4.604,44.132 4.707,44.069 C5.843,43.37 7.155,43 8.499,43 L9,43 L9,58 L2,58 L2,46.447 L2,46.447 Z M11,43 L15,43 L15,58 L11,58 L11,43 Z M28,2 L32,2 L32,58 L28,58 L28,2 Z M45,43 L49,43 L49,58 L45,58 L45,43 Z M51,58 L51,43 L51.5,43 C52.845,43 54.157,43.37 55.293,44.069 C55.395,44.132 55.492,44.205 55.581,44.284 L58,46.447 L58,58 L51,58 L51,58 Z"/></g></g></svg>