<svg xmlns="http://www.w3.org/2000/svg" width="97.67861" height="92.2198625" style=""><rect id="backgroundrect" width="100%" height="100%" x="0" y="0" fill="none" stroke="none"/><title>trump tiny hands2</title><g class="currentLayer" style=""><title>Layer 1</title><circle cx="91.03196930885315" cy="253.51300048828125" r="0.9231299757957458" transform="rotate(-88.84449768066406 -3.0384500026703214,159.68234252929685) " id="svg_1"/><path d="M6.196400001220703,65.30719926940918 a0.91566,0.91566 0 1 0 -0.4469000000000001,1.77417 a0.90222,0.90222 0 0 0 0.28500000000000003,0.028440000000000003 a0.921,0.921 0 0 0 0.16193000000000005,-1.80261 z" id="svg_2"/><path d="M44.936630001220706,42.83083926940918 c-0.18152000000000001,-0.25665 -1.80061,-2.5605700000000002 1.35837,0.6628300000000001 c1.9305599999999998,1.9699200000000001 4.2642299999999995,1.14208 5.74931,0.17438 c1.10807,-0.7220000000000001 2.01031,-2.56617 2.6126500000000004,-3.41462 c0.19400000000000003,-0.22647000000000003 -0.1333,0.91015 -0.49750000000000005,1.6436400000000002 C51.860020001220704,46.528169269409176 47.033870001220706,45.796149269409185 44.936630001220706,42.83083926940918 z" id="svg_3"/><path d="M47.4657800012207,41.25763926940918 A5.40264,5.40264 0 0 1 49.4417200012207,40.21677926940917 a4.715,4.715 0 0 1 2.70106,0.041760000000000005 c0.26832000000000006,0.10252000000000001 0.48100000000000004,0.20544000000000004 0.6305700000000001,0.27666 c0.14856000000000003,0.07325000000000001 0.12564,0.12141 -0.03427000000000001,0.07800000000000001 c-0.15894000000000005,-0.04500000000000001 -0.40639000000000003,-0.07224000000000001 -0.6776600000000002,-0.139 a4.83174,4.83174 0 0 0 -1.93153,0.07200000000000001 a9.71012,9.71012 0 0 0 -2.00356,0.5225799999999999 c-0.25911,0.10223000000000002 -0.47274,0.19465000000000002 -0.62136,0.26655 C47.3567200012207,41.40957926940918 47.400720001220705,41.310309269409174 47.4657800012207,41.25763926940918 z" id="svg_4"/><path d="M41.166950001220705,40.266349269409176 c0.18884000000000004,0.40193 -0.6972000000000002,-0.39165000000000005 -1.34,-1.29974 c-0.28987000000000007,-0.40951000000000004 -0.6223900000000001,-0.80346 -0.9440000000000001,-1.18461 c-0.2982,-0.35327000000000003 -0.6066200000000002,-0.7187200000000001 -0.8862500000000001,-1.10163 a10.25544,10.25544 0 0 1 -1.6888800000000002,-3.68242 s0.18382,-1.9626200000000003 0.46869,-0.10952000000000002 a9.682500000000001,9.682500000000001 0 0 0 1.6089000000000002,3.508 c0.2696,0.3693000000000001 0.57246,0.72821 0.86536,1.07523 c0.32800000000000007,0.38877000000000006 0.6673200000000001,0.79063 0.9690000000000001,1.21682 A7.96874,7.96874 0 0 1 41.166950001220705,40.266349269409176 z" id="svg_5"/><path d="M52.683090001220705,34.85757926940918 a1.8153700000000002,1.8153700000000002 0 0 1 -0.57751,-0.27679 a5.24812,5.24812 0 0 1 -0.79535,-1.8236700000000001 c-0.20624000000000003,-0.6320000000000001 -0.37720000000000004,-1.40259 -0.6440000000000001,-2.02307 c-0.19200000000000003,-0.44666000000000006 -0.4433000000000001,-0.7227200000000001 -0.6605200000000001,-0.7216800000000001 c-0.21619000000000002,0.0025600000000000006 -0.35986000000000007,0.25464 -0.63055,0.6765100000000001 a0.38274,0.38274 0 0 1 -0.36755000000000004,-0.16339000000000004 a0.40415,0.40415 0 0 0 -0.47443,-0.21423000000000003 c-0.37524,0.12256000000000002 -0.6421500000000001,0.93036 -0.71155,1.4323700000000001 a7.439,7.439 0 0 1 -0.9669200000000001,3.17609 a1.10818,1.10818 0 0 1 -0.08594000000000002,0.09534000000000002 c-0.15454000000000004,0.13513 -0.16900000000000004,0.22455000000000003 -0.26276,0.28809 c-0.13416,0.09094000000000002 0.20282,0.03613000000000001 0.27167,0.03644 h0.0003700000000000001 c0.07434,-0.009160000000000001 0.08057000000000002,0.029910000000000006 0.11182000000000002,0.08300000000000002 c0.10626000000000002,0.20782 0.3173200000000001,0.8470000000000001 0.514,1.32831 a18.97538,18.97538 0 0 0 0.8304400000000001,1.8796400000000002 a1.8681200000000002,1.8681200000000002 0 0 0 1.6731600000000002,0.77057 c0.05100000000000001,-0.003300000000000001 0.11249000000000002,-0.0023200000000000004 0.16211000000000003,-0.010620000000000001 a1.39964,1.39964 0 0 0 1.14563,-1.08563 a10.19787,10.19787 0 0 1 1.26,-3.34308 C52.616020001220704,34.95917926940918 52.7976000012207,34.88440926940918 52.683090001220705,34.85757926940918 zm-4.57245,-3.01056 c0.07776000000000002,-0.56366 0.31470000000000004,-1.11292 0.5068400000000001,-1.1756 a0.11260000000000002,0.11260000000000002 0 0 1 0.026920000000000006,-0.005430000000000001 c0.03491000000000001,-0.0023200000000000004 0.09418000000000003,0.014220000000000002 0.17114000000000001,0.1297 a0.6243200000000001,0.6243200000000001 0 0 0 0.54132,0.3459500000000001 a0.33119000000000004,0.33119000000000004 0 0 0 0.26093,-0.21588000000000002 c0.13239,-0.31995000000000007 0.265,-0.49756000000000006 0.3794600000000001,-0.49719 c0.11316000000000002,-0.0006100000000000002 0.25238000000000005,0.17749000000000004 0.39154000000000005,0.50122 c0.26068,0.6062000000000001 0.4918200000000001,1.31482 0.6957400000000002,1.94 a6.22173,6.22173 0 0 0 0.8975200000000001,1.91687 a1.237,1.237 0 0 1 -0.26892000000000005,-0.15234000000000003 l-0.013790000000000004,-0.021240000000000002 a6.32733,6.32733 0 0 1 -1.08624,-1.95575 c-0.02338000000000001,-0.07900000000000001 -0.04547000000000001,-0.15869000000000003 -0.06757000000000002,-0.23859000000000002 a4.94931,4.94931 0 0 0 -0.21700000000000003,-0.6627200000000002 a1.58215,1.58215 0 0 0 -0.28168000000000004,-0.43762000000000006 c-0.06036000000000001,-0.09760000000000003 -0.12195,-0.16589000000000004 -0.18915,-0.17600000000000002 c-0.007870000000000002,-0.0011600000000000002 -0.014590000000000002,0.0036600000000000014 -0.022220000000000004,0.003600000000000001 a0.20639000000000002,0.20639000000000002 0 0 0 -0.15700000000000003,-0.005490000000000001 a0.32521000000000005,0.32521000000000005 0 0 0 -0.13824000000000003,0.13782 c-0.029480000000000006,0.04846 -0.05695000000000001,0.10156000000000001 -0.08459000000000003,0.15472000000000002 c-0.06866000000000003,0.13275 -0.13361,0.25830000000000003 -0.22314000000000003,0.28107000000000004 c-0.040220000000000006,0.010440000000000001 -0.08783000000000002,-0.023800000000000005 -0.14362,-0.035160000000000004 a0.91858,0.91858 0 0 0 -0.18646000000000004,-0.04187000000000001 h-0.00012000000000000004 c-0.31671000000000005,-0.0013400000000000005 -0.48621000000000003,0.43384000000000006 -0.52063,0.5186200000000001 a3.07524,3.07524 0 0 0 -0.28571,1.1261 a4.924,4.924 0 0 1 -0.11072000000000003,0.64331 a1.98325,1.98325 0 0 1 -0.7360800000000001,1.04358 c-0.039180000000000006,0.029300000000000007 -0.13519,0.09058000000000002 -0.23193000000000003,0.14716 C47.4671500012207,34.82764926940918 47.860520001220706,33.65882926940918 48.110650001220705,31.84705926940918 zm1.3760000000000001,0.78571 a0.07850000000000001,0.07850000000000001 0 0 1 -0.09454000000000003,-0.04938000000000001 c-0.05000000000000001,-0.10852000000000002 -0.10278000000000001,-0.26172 -0.16089000000000003,-0.40839000000000003 a4.02674,4.02674 0 0 0 0.03644,0.451 a0.08225000000000002,0.08225000000000002 0 0 1 -0.05145000000000001,0.08923000000000003 a3.7648200000000003,3.7648200000000003 0 0 1 -0.80646,0.15747000000000003 a1.6233,1.6233 0 0 1 0.17334000000000002,-0.52368 a0.15586000000000003,0.15586000000000003 0 0 0 0.013430000000000003,-0.026670000000000006 c0.0012200000000000004,-0.003110000000000001 0.11792000000000002,-0.30371000000000004 0.3194000000000001,-0.3324000000000001 l0.007510000000000002,-0.003360000000000001 a0.41609,0.41609 0 0 1 0.12677,0.014770000000000004 a0.8886600000000001,0.8886600000000001 0 0 0 0.13818,0.005430000000000001 a0.30649000000000004,0.30649000000000004 0 0 0 0.09418000000000003,0.0036600000000000014 c0.18939000000000003,-0.04828 0.28955000000000003,-0.24207 0.37800000000000006,-0.41278000000000004 c0.024170000000000004,-0.04694000000000001 0.04828,-0.09363000000000003 0.07434,-0.13647 c0.016780000000000003,-0.027770000000000006 0.024290000000000003,-0.03436000000000001 0.022460000000000008,-0.034420000000000006 c0.0012800000000000003,0.00006000000000000002 0.01819,0.0008500000000000003 0.05756000000000001,0.03430000000000001 a1.19261,1.19261 0 0 1 0.29944000000000004,0.43800000000000006 c0.021180000000000004,0.04865000000000001 0.03265000000000001,0.10590000000000001 0.05090000000000001,0.15637 l0.015750000000000004,0.054930000000000014 l0.06409000000000002,0.22522000000000003 A5.73827,5.73827 0 0 1 49.486720001220704,32.63276926940918 zm0.6478900000000002,4.68048 a1.4838500000000001,1.4838500000000001 0 0 1 -0.30963,0.13287 c-0.037230000000000006,0.009770000000000004 -0.07123000000000002,0.009830000000000004 -0.10754000000000001,0.016360000000000006 c0.008300000000000002,-0.08008000000000001 0.015930000000000003,-0.18781000000000003 0.022000000000000006,-0.36816000000000004 c0.0067100000000000016,-0.05646 0.005920000000000002,-0.15500000000000003 0.013790000000000004,-0.22600000000000003 c0.05334000000000001,0.012150000000000001 0.3385000000000001,0.06671000000000002 0.3870800000000001,0.07700000000000001 C50.1445800012207,36.97937926940918 50.1394500012207,37.19867926940918 50.1345700012207,37.31324926940918 zm-0.48273,0.15918000000000002 c-0.03674,0.004640000000000001 -0.07587,0.01563 -0.11084000000000001,0.016850000000000004 a1.11022,1.11022 0 0 1 -0.2605,-0.03961000000000001 c0.006000000000000002,-0.05182000000000001 0.013920000000000002,-0.11462000000000003 0.025450000000000007,-0.19200000000000003 c0.014590000000000002,-0.08228000000000002 0.0012800000000000003,-0.16284000000000004 0.020570000000000005,-0.3477200000000001 l0.28674,-0.059630000000000016 C49.6405500012207,37.17701926940918 49.6484900012207,37.36213926940918 49.651840001220705,37.47242926940918 zm-0.40387000000000006,-0.21484000000000003 a0.82836,0.82836 0 0 1 -0.008060000000000001,0.18591000000000005 a1.16719,1.16719 0 0 1 -0.13452,-0.020450000000000006 c-0.06653000000000002,-0.03876 -0.15228000000000003,-0.1048 -0.23358,-0.16467 a1.26423,1.26423 0 0 0 0.07037,-0.16821000000000005 c0.04755000000000001,-0.0014000000000000004 0.23358,-0.002690000000000001 0.29114,-0.003230000000000001 C49.2385700012207,37.13599926940918 49.2440100012207,37.20551926940918 49.2479700012207,37.25757926940918 zm0.9313400000000001,-0.06769000000000003 c0.009770000000000004,-0.03943000000000001 0.022520000000000005,-0.09174000000000003 0.03314000000000001,-0.12994000000000003 c0.059330000000000015,0.010560000000000002 0.16700000000000004,0.019780000000000002 0.23584000000000002,0.029050000000000006 a1.5977200000000003,1.5977200000000003 0 0 1 -0.14185,0.12848 l-0.005130000000000001,0.003600000000000001 q-0.04321000000000001,0.031000000000000007 -0.08728000000000002,0.05800000000000001 c-0.015000000000000003,0.009220000000000002 -0.030520000000000005,0.011000000000000003 -0.04565000000000002,0.019590000000000003 A0.47258000000000006,0.47258000000000006 0 0 1 50.179310001220706,37.18988926940918 zm0.7684900000000001,0.9380000000000001 a1.1320000000000001,1.1320000000000001 0 0 1 -0.928,0.9074099999999999 a1.62766,1.62766 0 0 1 -1.5638400000000001,-0.6648600000000001 a17.41176,17.41176 0 0 1 -0.79333,-1.77332 c-0.23456000000000002,-0.57446 -0.41846000000000005,-0.9457400000000001 -0.56976,-1.26654 a0.457,0.457 0 0 1 0.17352,0.07379000000000002 s0.55438,0.7248500000000001 0.81525,1.16669 c0.018370000000000004,0.031190000000000006 0.03583000000000001,0.07153000000000001 0.053890000000000014,0.10217000000000001 c0.09200000000000003,0.15649000000000005 0.18042000000000002,0.3134200000000001 0.25769,0.46307000000000004 c0.014100000000000001,0.027280000000000006 0.031560000000000005,0.054320000000000014 0.047360000000000006,0.08014000000000002 a1.4945,1.4945 0 0 0 0.75726,0.5882000000000001 a2.38333,2.38333 0 0 0 1.10022,-0.13458 a3.68134,3.68134 0 0 0 0.8291000000000001,-1.08264 a6.77234,6.77234 0 0 0 0.38544000000000006,-0.6945800000000001 a1.4763700000000002,1.4763700000000002 0 0 1 0.5932000000000001,-0.61548 A8.84889,8.84889 0 0 0 50.947800001220706,38.12787926940918 z" id="svg_6"/><path d="M52.9152800012207,28.399249269409182 a26.90043,26.90043 0 0 0 -1.669,-2.7843299999999997 L51.2437200012207,25.60957926940918 c-0.16875000000000004,-0.3329100000000001 -0.37370000000000003,-0.63141 -0.6087800000000001,-1.098 c-0.12924000000000002,-0.2564 -1.6174300000000001,-3.31039 -0.8541200000000001,-5.46811 c0.25356,-0.7168300000000001 -0.20051000000000002,-0.19245000000000004 -0.50883,0.80425 c-0.59136,1.91168 0.87255,4.68338 0.9603,4.84508 l0.04300000000000001,0.07932000000000002 a5.72153,5.72153 0 0 1 0.2637,1.82644 c-0.06663000000000002,0.3326200000000001 0.19177000000000002,0.060650000000000016 0.23413,-0.10539000000000001 a3.169,3.169 0 0 0 0.040560000000000006,-0.8641400000000001 c0.12875,0.24035 0.28356000000000003,0.6724300000000001 0.36424,0.8273400000000001 c0.22865000000000002,0.43919 0.6470000000000001,1.94433 -0.23971000000000003,2.1572 c-0.0012500000000000002,-0.015160000000000002 -0.05474000000000001,-0.5022 -0.25318999999999997,-0.48700000000000004 s-0.30900000000000005,0.2983200000000001 -0.4526,0.4498200000000001 a1.90724,1.90724 0 0 1 -1.80464,0.3330000000000001 c-0.12163000000000002,-0.045600000000000016 -0.29121,-0.07532000000000001 -0.35000000000000003,-0.18506000000000003 a0.9456500000000001,0.9456500000000001 0 0 0 -0.39474000000000004,-0.48314 c-0.26653,-0.14800000000000002 -0.42519,0.22000000000000003 -0.42049000000000003,0.29121 a1.14282,1.14282 0 0 0 0.20138,0.43133000000000005 a0.72726,0.72726 0 0 1 -1.05306,0.004890000000000001 a0.9275,0.9275 0 0 1 -0.17736000000000002,-0.70447 a5.12759,5.12759 0 0 1 0.6881100000000001,-1.98426 a1.94028,1.94028 0 0 0 0.31239000000000006,0.94656 c0.08786000000000002,0.14520000000000002 0.3964500000000001,0.3371800000000001 0.21584000000000003,-0.04576000000000001 a3.481,3.481 0 0 1 -0.30919,-1.02393 c-0.018460000000000004,-0.09830000000000003 -0.005000000000000001,-0.53408 -0.08900000000000002,-0.4924700000000001 a3.66228,3.66228 0 0 0 -0.5456000000000001,0.7364400000000001 a3.95929,3.95929 0 0 0 -0.36159,0.7526000000000002 a11.98546,11.98546 0 0 0 -0.9570000000000001,2.56176 a7.0317,7.0317 0 0 0 -0.0009500000000000003,3.9721599999999997 a19.66862,19.66862 0 0 1 0.7383500000000001,-5.34948 c-0.07962000000000002,1.24187 0.917,1.2165 1.05985,1.18875 a2.19,2.19 0 0 0 0.7006900000000001,-0.3851800000000001 a2.43478,2.43478 0 0 0 0.24649000000000004,-0.21867 a1.64133,1.64133 0 0 0 1.94582,0.3763100000000001 a1.7934299999999999,1.7934299999999999 0 0 0 0.53428,-0.3833100000000001 c0.08938000000000001,-0.13431 0.16327000000000003,0.16044000000000005 0.44545000000000007,0.15808000000000003 c1.8277700000000001,-0.015280000000000004 1.13631,-1.8047300000000002 0.793,-2.40644 l-0.008380000000000002,-0.03941000000000001 c0.007620000000000002,0.026240000000000003 0.018910000000000003,0.059690000000000014 0.024680000000000004,0.08200000000000002 c0.93391,1.7804 2.14516,4.40261 2.106,6.61711 C53.7555400012207,34.30698926940918 54.381090001220706,31.17332926940918 52.9152800012207,28.399249269409182 z" id="svg_7"/><path d="M32.1238700012207,26.811229269409182 a1.9329,1.9329 0 0 0 0.13726000000000002,1.6800000000000002 c0.40844,0.6503700000000001 0.04164000000000001,0.60843 -0.11051000000000001,0.6707000000000002 c-0.15051000000000003,0.061600000000000016 -0.25967,0.36616000000000004 -0.31963,0.36809000000000003 c-0.6163700000000001,0.019880000000000002 -0.60441,-0.21431000000000003 -0.6366000000000002,-1.03621 a7.77026,7.77026 0 0 1 0.019090000000000003,-1.6078700000000001 c0.07859000000000002,-0.787 0.32664000000000004,-1.7993000000000001 0.47450000000000003,-1.3508200000000001 C31.8563400012207,26.04575926940918 32.1238700012207,26.811229269409182 32.1238700012207,26.811229269409182 z" id="svg_8"/><path d="M29.150070001220705,23.91381926940918 c-0.52566,-0.41059 -1.04825,-0.7429100000000001 -1.06593,-0.19344000000000006 a4.7388900000000005,4.7388900000000005 0 0 0 0.35368000000000005,2.02445 a14.59294,14.59294 0 0 1 0.7658000000000001,1.53793 c0.09207000000000003,0.3491800000000001 0.30700000000000005,-0.16882000000000003 -0.0007200000000000003,-1.01913 a3.873,3.873 0 0 1 -0.40743,-1.39518 A1.0318100000000001,1.0318100000000001 0 0 1 29.150070001220705,23.91381926940918 z" id="svg_9"/><path d="M59.5945200012207,24.676069269409183 a1.19428,1.19428 0 0 1 0.13409000000000001,1.5777100000000002 c-0.33225000000000005,0.523 -0.13505,0.7525900000000001 0.31978000000000006,0.5429 s0.07982000000000002,-0.5004299999999999 0.49972000000000005,-1.12411 c0.15562,-0.23115 -0.13883,-1.04449 -0.5467200000000001,-1.6032000000000002 a1.65155,1.65155 0 0 0 -0.6746800000000002,-0.558 z" id="svg_10"/><path d="M43.9365900012207,23.16291926940918 a4.34867,4.34867 0 0 1 -3.88205,0.8857200000000002 c-0.6984800000000001,-0.23855 -1.93172,-1.043 -1.05591,-0.31046000000000007 c2.07574,1.73621 4.4430700000000005,0.7994 5.90072,-1.28851 C45.0731700012207,22.200699269409178 44.4787200012207,22.671079269409177 43.9365900012207,23.16291926940918 z" id="svg_11"/><path d="M51.918380001220704,21.90928926940918 c0.8622200000000001,0.20652 1.93968,-0.10037 3.51713,-1.15923 c0.48152000000000006,-0.32322000000000006 1.07428,-0.5463 0.24567,0.10232000000000001 c-1.9222700000000001,1.50471 -3.05264,1.95828 -4.80882,0.9961599999999999 C50.6560200012207,21.73002926940918 51.1917200012207,21.73522926940918 51.918380001220704,21.90928926940918 z" id="svg_12"/><path d="M38.4537200012207,22.495509269409183 c-0.020580000000000005,0.11123000000000002 -0.7314400000000001,1.19819 -1.42833,1.35318 c-0.17335,0.030400000000000007 -0.3956800000000001,0.08317000000000002 -0.41667000000000004,0.0020700000000000007 c0.10321000000000001,-0.09309000000000003 0.6562800000000001,-0.41063 0.82959,-0.52707 A12.99921,12.99921 0 0 1 38.4537200012207,22.495509269409183 z" id="svg_13"/><path d="M38.568900001220705,22.28757926940918 s-0.10200000000000001,0.016360000000000006 -0.22705000000000003,0.032470000000000006 c-0.19482000000000002,-0.11139000000000002 -0.6910000000000002,-0.3953200000000001 -0.7738,-0.44659000000000004 c-0.20416,-0.13458 -0.53076,-0.25977 -0.80939,-0.40700000000000003 l-0.40887000000000007,-0.21300000000000002 c-0.13019,-0.06744000000000001 -0.25336000000000003,-0.12921000000000002 -0.35669,-0.18573000000000003 c-0.05300000000000001,-0.028810000000000002 -0.1004,-0.05341000000000001 -0.14014000000000001,-0.07776000000000002 a1.18939,1.18939 0 0 1 -0.11060000000000002,-0.06677000000000002 c-0.06140000000000001,-0.04200000000000001 -0.09924000000000004,-0.06378000000000002 -0.09924000000000004,-0.06378000000000002 s0.012510000000000002,0.04169000000000001 0.03925000000000001,0.11090000000000001 a0.5804,0.5804 0 0 0 0.06354000000000001,0.12018000000000001 a0.8960600000000001,0.8960600000000001 0 0 0 0.10492000000000001,0.14563 a1.8007300000000002,1.8007300000000002 0 0 0 0.31384000000000006,0.30383000000000004 a2.9388300000000003,2.9388300000000003 0 0 0 0.41339000000000004,0.26727 a3.01587,3.01587 0 0 0 0.8610800000000001,0.30322000000000005 c0.09200000000000003,0.017270000000000004 0.5900900000000001,0.15039000000000002 0.8407000000000001,0.21790000000000004 a1.99769,1.99769 0 0 1 -0.48718000000000006,0.013370000000000003 a2.991,2.991 0 0 0 -1.64087,0.16559000000000004 a1.6982400000000002,1.6982400000000002 0 0 0 -0.3438100000000001,0.18243000000000004 a2.60631,2.60631 0 0 0 0.3838500000000001,0.0354 a5.91312,5.91312 0 0 0 0.80756,-0.032290000000000006 a6.02368,6.02368 0 0 0 0.7976700000000001,-0.13068 C37.938100001220704,22.52979926940918 38.568900001220705,22.28757926940918 38.568900001220705,22.28757926940918 z" id="svg_14"/><path d="M57.4771100012207,19.647749269409182 a1.92537,1.92537 0 0 0 -0.75721,-0.024440000000000003 a2.34224,2.34224 0 0 0 0.5999400000000001,-0.31716000000000005 a2.50959,2.50959 0 0 0 0.3291200000000001,-0.29308000000000006 a1.71338,1.71338 0 0 0 0.24363,-0.32319000000000003 a0.9390000000000001,0.9390000000000001 0 0 0 0.07863000000000002,-0.15200000000000002 a0.6361100000000001,0.6361100000000001 0 0 0 0.045640000000000014,-0.12400000000000001 c0.018090000000000002,-0.07073000000000002 0.025920000000000006,-0.11320000000000002 0.025920000000000006,-0.11320000000000002 s-0.030320000000000007,0.024190000000000003 -0.07900000000000001,0.07 a0.99113,0.99113 0 0 1 -0.08834000000000002,0.07369000000000002 c-0.03175000000000001,0.026860000000000005 -0.06983000000000002,0.05443000000000001 -0.11239000000000002,0.08655000000000002 c-0.08291000000000001,0.06300000000000001 -0.5035,0.36552000000000007 -0.6154000000000001,0.44674 c-0.22391000000000005,0.16470000000000004 -0.47668000000000005,0.3053600000000001 -0.6390000000000001,0.45268 c-0.08028000000000002,0.06853000000000002 -0.47446000000000005,0.32379 -0.49459000000000003,0.3368100000000001 l-0.024680000000000004,0.005000000000000001 a11.624,11.624 0 0 0 1.4752800000000001,0.261 a6.43036,6.43036 0 0 0 0.90259,-0.09720000000000004 A5.18647,5.18647 0 0 0 57.4771100012207,19.647749269409182 z" id="svg_15"/><path d="M56.23223000122071,19.974669269409176 a4.36684,4.36684 0 0 0 0.8250000000000001,0.86446 a1.488,1.488 0 0 0 0.54726,0.18422000000000002 c0.15849000000000005,0.015140000000000002 0.36258000000000007,0.046120000000000015 0.37666000000000005,-0.023080000000000007 c-0.09888000000000002,-0.07185 -0.6576500000000002,-0.43700000000000006 -0.8212700000000001,-0.5242 A6.97252,6.97252 0 0 0 56.23223000122071,19.974669269409176 z" id="svg_16"/><path d="M44.2270400012207,21.58313926940918 a5.86639,5.86639 0 0 1 -1.44725,-0.39660000000000006 c-1.30179,-0.52545 -2.06131,-0.91116 -3.45925,0.5847700000000001 c-0.03163000000000001,0.03384000000000001 0.018430000000000002,0.08142000000000002 0.06018000000000001,0.06134000000000001 a2.93613,2.93613 0 0 1 1.12872,-0.26947000000000004 a0.8403,0.8403 0 0 0 -0.03967000000000001,0.13043000000000002 a0.79378,0.79378 0 0 0 -0.019530000000000002,0.09674000000000003 a0.8347100000000001,0.8347100000000001 0 0 0 0.42267000000000005,0.71655 a2.60869,2.60869 0 0 1 -0.71651,-0.041780000000000005 c-0.13518,-0.025750000000000006 -0.42460000000000003,0.01041 -0.32456000000000007,0.07450000000000001 a3.6956800000000003,3.6956800000000003 0 0 0 1.1167,0.2 a3.9222900000000003,3.9222900000000003 0 0 0 1.6846900000000002,-0.44153000000000003 c0.40411,-0.19470000000000004 1.064,-0.48785000000000006 1.23328,-0.53955 a0.19281000000000004,0.19281000000000004 0 0 0 0.06360000000000002,-0.03180000000000001 a2.25273,2.25273 0 0 0 0.29730000000000006,0.0010000000000000002 C44.279410001220704,21.72400926940918 44.3118200012207,21.597899269409183 44.2270400012207,21.58313926940918 zm-1.6981200000000003,0.38959000000000005 c-0.16467,0.07935 -0.3452800000000001,0.18359000000000003 -0.52032,0.25781000000000004 l0.003600000000000001,-0.014000000000000002 a0.8231,0.8231 0 0 0 0.13165,-0.42621000000000003 a0.55611,0.55611 0 0 0 -0.09707000000000003,-0.3213100000000001 c0.52533,0.052120000000000014 1.27554,0.1758 1.49929,0.21279000000000003 A6.63542,6.63542 0 0 0 42.528920001220705,21.97272926940918 zm-0.97462,-0.13074000000000002 a0.22600000000000003,0.22600000000000003 0 1 1 -0.22600000000000003,-0.22600000000000003 A0.22600000000000003,0.22600000000000003 0 0 1 41.5543000012207,21.841989269409183 z" id="svg_17"/><path d="M45.44272000122071,19.98701926940918 c-0.11815000000000002,-0.27386000000000005 0.26872,0.03341000000000001 0.55578,0.44340000000000007 c0.4933700000000001,0.7046700000000001 0.40317000000000003,2.46888 0.09953000000000004,2.48266 A6.84771,6.84771 0 0 0 45.44272000122071,19.98701926940918 z" id="svg_18"/><path d="M55.3499600012207,19.34931926940918 c0.046140000000000014,0.00421 0.08179000000000003,-0.058110000000000016 0.039180000000000006,-0.07648 a2.8989000000000003,2.8989000000000003 0 0 0 -3.54364,0.3960000000000001 a3.3656,3.3656 0 0 1 -1.18213,0.93628 a0.04438000000000001,0.04438000000000001 0 0 0 0.02747000000000001,0.08368000000000002 a2.60527,2.60527 0 0 0 0.4365800000000001,-0.15576000000000004 c-0.008060000000000001,0.003910000000000001 -0.020200000000000003,0.012760000000000002 -0.027530000000000006,0.015690000000000003 l-0.04443000000000001,0.022460000000000008 a2.76422,2.76422 0 0 1 0.83942,0.13507 a4.2832,4.2832 0 0 0 0.7580000000000001,0.16534000000000004 a2.10394,2.10394 0 0 0 0.6892100000000001,-0.022710000000000004 a1.8860000000000001,1.8860000000000001 0 0 0 0.35181000000000007,-0.11591000000000001 a2.14419,2.14419 0 0 0 0.6874400000000002,-0.5007900000000001 c0.16431000000000004,-0.16791000000000006 -0.06134000000000001,-0.1 -0.19672000000000003,-0.04865000000000001 c-0.030460000000000008,0.011540000000000003 -0.18726000000000004,0.07526000000000002 -0.29358000000000006,0.12347000000000001 a0.81951,0.81951 0 0 0 -0.18066000000000002,-0.8914200000000001 A4.17016,4.17016 0 0 1 55.3499600012207,19.34931926940918 zm-3.84155,0.99524 c0.13489,-0.07446000000000001 0.6527100000000001,-0.39276000000000005 0.7776500000000001,-0.4763200000000001 a0.80276,0.80276 0 0 0 -0.027590000000000007,0.13672 a0.8376600000000001,0.8376600000000001 0 0 0 0.27545000000000003,0.61731 C52.253890001220704,20.546459269409176 51.784110001220704,20.40418926940918 51.5084100012207,20.34457926940918 zm1.8330000000000002,-0.39055000000000006 a0.22600000000000003,0.22600000000000003 0 1 1 -0.22600000000000003,-0.22600000000000003 A0.22600000000000003,0.22600000000000003 0 0 1 53.341440001220704,19.954009269409177 z" id="svg_19"/><path d="M50.900500001220706,20.17247926940918 c-0.44469000000000003,0.43379 -0.26575,0.027180000000000006 -0.028390000000000006,-0.24672000000000002 a17.95629,17.95629 0 0 1 1.32525,-1.4626700000000001 a3.68668,3.68668 0 0 1 1.1691500000000001,-0.7487300000000001 a1.71553,1.71553 0 0 1 2.2451,1.0483 c0.3865700000000001,0.7564500000000001 0.22700000000000004,1.08873 0.09969000000000004,0.8242900000000001 c-0.13342,-0.277 -0.14939000000000002,-0.47439000000000003 -0.29156000000000004,-0.7397700000000001 c-0.5072599999999999,-0.9466100000000001 -1.75121,-1.4832 -2.99036,-0.21590000000000004 C51.927720001220706,19.14429926940918 51.172660001220706,19.906999269409177 50.900500001220706,20.17247926940918 z" id="svg_20"/><path d="M38.7592100012207,22.18957926940918 c-0.11505000000000001,0.3380000000000001 -0.29066000000000003,0.6520700000000001 -0.28930000000000006,0.24032 a5.9666,5.9666 0 0 1 0.8640000000000001,-2.07522 c0.09526000000000004,-0.15400000000000003 0.5388000000000001,-0.8860500000000001 1.22469,-0.7506500000000002 a11.48939,11.48939 0 0 1 3.9742699999999997,1.6350000000000002 c0.20281000000000002,0.21762 -0.10523000000000002,0.15150000000000002 -0.38566000000000006,0.013440000000000002 a14.59672,14.59672 0 0 0 -3.52,-1.35259 a0.94347,0.94347 0 0 0 -0.99652,0.47045000000000003 A11.26615,11.26615 0 0 0 38.7592100012207,22.18957926940918 z" id="svg_21"/><path d="M44.9461300012207,16.56090926940918 c-0.14244000000000004,-0.54481 -0.15025000000000002,0.08492000000000002 -0.20122,0.49817000000000006 a6.171,6.171 0 0 1 -0.20264000000000001,1.42448 a1.12789,1.12789 0 0 0 0.06855000000000001,-0.3513800000000001 c-0.014500000000000002,-0.42236000000000007 -0.4943000000000001,-0.6898000000000002 -1.467,-0.81781 c-0.18932000000000002,-0.024890000000000002 -0.4057,-0.05716000000000001 -0.6338700000000002,-0.09109000000000003 a5.59034,5.59034 0 0 0 -2.45047,-0.11006000000000002 A3.26808,3.26808 0 0 1 38.798220001220706,17.62257926940918 a1.73359,1.73359 0 0 0 -1.12609,0.49100000000000005 a2.15317,2.15317 0 0 0 -0.5236200000000001,0.6350000000000001 a3.73083,3.73083 0 0 1 -0.31053000000000003,0.45227 a2.16373,2.16373 0 0 0 -0.6263700000000001,1.4237600000000001 a0.6728800000000001,0.6728800000000001 0 0 0 1.25462,0.39755000000000007 a1.931,1.931 0 0 0 0.15721000000000004,0.18356000000000003 l0.16486000000000003,-0.17526000000000003 a1.59157,1.59157 0 0 1 -0.16132000000000002,-0.18409000000000003 a2.72365,2.72365 0 0 0 0.24480000000000002,-0.38161000000000006 c0.03352000000000001,-0.06247000000000001 0.06325000000000001,-0.11094000000000001 0.09400000000000003,-0.16305000000000003 c0.021230000000000002,0.009900000000000003 0.04500000000000001,0.012870000000000003 0.06608000000000001,0.023140000000000004 a0.12031,0.12031 0 0 0 0.12100000000000001,-0.20721000000000003 c-0.018760000000000002,-0.012910000000000001 -0.03309000000000001,-0.03160000000000001 -0.05110000000000001,-0.045640000000000014 c0.011610000000000002,-0.019390000000000004 0.026670000000000006,-0.04312000000000001 0.036860000000000004,-0.06118000000000001 c0.050260000000000006,-0.08887000000000002 0.08778000000000002,-0.15400000000000003 0.12382000000000001,-0.20725000000000002 c0.08729000000000003,0.020270000000000003 0.17147,0.052800000000000014 0.25981000000000004,0.06784000000000001 a0.12035,0.12035 0 0 0 0.09957000000000003,-0.20900000000000002 l-0.07200000000000001,-0.06330000000000001 c0.07663000000000002,-0.023400000000000008 0.17259000000000002,-0.046230000000000014 0.3073100000000001,-0.07651000000000001 c0.08472000000000003,-0.019000000000000003 0.18229000000000004,-0.04100000000000001 0.29534000000000005,-0.06767000000000002 l0.09752000000000004,-0.023500000000000007 c0.04540000000000001,0.020180000000000003 0.09615000000000003,0.03975000000000001 0.13740000000000002,0.06020000000000001 a0.11988000000000001,0.11988000000000001 0 0 0 0.14159000000000002,-0.025930000000000005 c0.026260000000000006,-0.028380000000000006 0.017720000000000003,-0.06736000000000002 0.011090000000000003,-0.1039 c0.19974000000000006,-0.048630000000000013 0.3901700000000001,-0.09462000000000004 0.5761000000000001,-0.13478 c0.029310000000000006,0.021280000000000004 0.06337000000000001,0.05273000000000001 0.09100000000000003,0.07028000000000001 a0.12044,0.12044 0 0 0 0.16054000000000004,-0.029000000000000005 a0.11727000000000003,0.11727000000000003 0 0 0 0.020920000000000005,-0.08982000000000002 a5.04378,5.04378 0 0 1 0.80905,-0.08592000000000002 c0.05890000000000001,0.031000000000000007 0.11747000000000002,0.06663000000000002 0.17659000000000002,0.09348000000000002 a0.11976000000000003,0.11976000000000003 0 0 0 0.13851000000000002,-0.028450000000000007 c0.014000000000000002,-0.015320000000000002 0.0016100000000000003,-0.036640000000000006 0.006270000000000001,-0.05585000000000001 a4.21459,4.21459 0 0 1 0.46649,0.04182000000000001 a5.5724,5.5724 0 0 1 1.6778700000000002,0.5620700000000001 c0.06100000000000001,0.01824 0.19000000000000003,0.07600000000000001 0.22747000000000003,0.024370000000000006 c0.009210000000000003,-0.012710000000000003 0.017890000000000003,-0.028520000000000004 0.027090000000000006,-0.04154000000000001 c0.019430000000000003,0.028650000000000005 0.05182000000000001,0.029490000000000006 0.09786000000000003,-0.020770000000000004 c0.06640000000000001,-0.07251 0.12136000000000001,-0.15080000000000002 0.18043000000000003,-0.22700000000000004 l0.022840000000000003,0.03567000000000001 l0.027430000000000006,0.04291000000000001 l0.20277,-0.12941000000000003 l-0.027240000000000004,-0.04279000000000001 c-0.023500000000000007,-0.03687000000000001 -0.04784000000000001,-0.07366000000000002 -0.07183,-0.11052000000000002 A3.6430000000000002,3.6430000000000002 0 0 0 44.9461300012207,16.56090926940918 zm-1.83373,0.992 c0.81348,0.10700000000000001 1.24844,0.31012000000000006 1.258,0.58748 a1.98941,1.98941 0 0 1 -0.25352,0.7430900000000001 a4.027,4.027 0 0 0 -1.287,-1.37119 C42.923550001220704,17.52584926940918 43.027980001220705,17.541869269409183 43.112400001220706,17.55295926940918 zm-5.44528,2.7852 a3.01058,3.01058 0 0 1 -0.19693000000000005,0.28183 a3.93,3.93 0 0 1 -0.3210800000000001,-0.6038400000000002 a4.00285,4.00285 0 0 1 0.58791,0.20553000000000002 C37.713560001220706,20.26076926940918 37.6940200012207,20.29465926940918 37.6671200012207,20.338159269409182 zm0.262,-0.4459000000000001 l-0.007660000000000002,0.013390000000000003 a1.25338,1.25338 0 0 1 -0.15933000000000003,-0.23271000000000003 c0.08421000000000002,0.030000000000000006 0.17332,0.04266000000000001 0.25912999999999997,0.06762000000000003 C37.991720001220706,19.78890926940918 37.965460001220706,19.82803926940918 37.929130001220706,19.892249269409177 zm0.87516,-0.6044900000000001 a2.423,2.423 0 0 0 -0.45512,0.13478 l-0.38514000000000004,-0.33873000000000003 a3.85451,3.85451 0 0 1 0.8854000000000001,0.19360000000000002 zm0.6506500000000002,-0.21356000000000003 a0.5708500000000001,0.5708500000000001 0 0 0 -0.08274000000000002,0.03423000000000001 a8.55087,8.55087 0 0 0 -0.72948,-0.6825800000000001 a4.35465,4.35465 0 0 1 1.15918,0.5688300000000001 C39.686830001220706,19.02117926940918 39.5746700012207,19.04505926940918 39.4549300012207,19.07420926940918 zm0.6620900000000002,-0.15056000000000003 c-0.030830000000000003,-0.022700000000000005 -0.05085000000000001,-0.04200000000000001 -0.08420000000000002,-0.06533000000000001 c-0.11489000000000002,-0.1 -0.23690000000000003,-0.21368 -0.35672000000000004,-0.3254100000000001 c-0.14624000000000004,-0.1363 -0.29545000000000005,-0.27536000000000005 -0.43493000000000004,-0.3924100000000001 a3.05482,3.05482 0 0 1 1.35843,0.60016 c0.04427000000000001,0.028220000000000002 0.09000000000000002,0.05548 0.13485,0.08374000000000002 C40.528030001220706,18.847189269409178 40.3239500012207,18.88157926940918 40.1170200012207,18.923649269409182 zm0.6118100000000001,-0.38600000000000007 a2.547,2.547 0 0 0 -1.83779,-0.6093500000000001 a0.12028000000000001,0.12028000000000001 0 0 0 -0.039380000000000005,0.21913000000000002 a2.36311,2.36311 0 0 1 0.24561000000000002,0.18632 a1.76456,1.76456 0 0 0 -0.8690900000000001,-0.18452000000000002 a0.12033,0.12033 0 0 0 -0.04859000000000001,0.21933000000000002 a8.1521,8.1521 0 0 1 0.8212400000000001,0.70306 a3.61561,3.61561 0 0 0 -1.367,-0.22959000000000004 a0.12031,0.12031 0 0 0 -0.07,0.21029000000000003 l0.54434,0.47873 a4.29319,4.29319 0 0 1 -0.51028,-0.18053000000000002 a0.12031,0.12031 0 0 0 -0.16338000000000003,0.14192000000000002 a1.45734,1.45734 0 0 0 0.17847000000000002,0.40262000000000003 a4.25156,4.25156 0 0 0 -0.6267600000000001,-0.15607000000000001 a0.12173000000000002,0.12173000000000002 0 0 0 -0.10960000000000002,0.03815000000000001 a0.12028000000000001,0.12028000000000001 0 0 0 -0.026410000000000006,0.11300000000000002 a3.71321,3.71321 0 0 0 0.455,0.91278 a0.6995800000000001,0.6995800000000001 0 0 1 -0.3370000000000001,0.19326000000000004 a0.46817000000000003,0.46817000000000003 0 0 1 -0.05142000000000001,0.003540000000000001 a0.6628700000000002,0.6628700000000002 0 0 1 -0.10010000000000001,-0.003590000000000001 a0.47751000000000005,0.47751000000000005 0 0 1 -0.06764000000000002,-0.011780000000000004 a0.62148,0.62148 0 0 1 -0.13717,-0.06045000000000001 a0.43644000000000005,0.43644000000000005 0 0 1 -0.16111000000000003,-0.3254700000000001 a1.84645,1.84645 0 0 1 0.57356,-1.24545 a3.97756,3.97756 0 0 0 0.3295100000000001,-0.47918000000000005 a1.92818,1.92818 0 0 1 0.46908000000000005,-0.5727700000000001 a1.51037,1.51037 0 0 1 0.98347,-0.43800000000000006 a2.89152,2.89152 0 0 0 1.09271,-0.38343000000000005 a3.95951,3.95951 0 0 0 0.9087900000000001,1.09885 l0.024250000000000004,0.024940000000000004 zm1.3203,0.3203600000000001 a4.77981,4.77981 0 0 0 -0.70133,-0.06361000000000001 c-0.09218000000000003,-0.10041 -0.21521000000000004,-0.22743000000000005 -0.36733000000000005,-0.3838000000000001 c-0.23632,-0.24283000000000002 -0.5949400000000001,-0.6114700000000001 -0.7605000000000001,-0.82833 A3.21754,3.21754 0 0 1 42.0977200012207,18.86747926940918 l0.0013800000000000004,0.0011100000000000003 C42.0815200012207,18.86557926940918 42.066890001220706,18.860969269409182 42.04914000122071,18.858039269409183 zm0.21789000000000003,0.04600000000000001 a0.11790000000000002,0.11790000000000002 0 0 0 0.04352000000000001,-0.14843000000000003 c-0.09093000000000002,-0.18827000000000002 -0.23882,-0.4348700000000001 -0.38179,-0.6733300000000001 c-0.08732000000000002,-0.14553000000000002 -0.17640000000000003,-0.29411000000000004 -0.252,-0.42855000000000004 a3.05386,3.05386 0 0 1 0.6398600000000001,0.7421500000000001 a4.80028,4.80028 0 0 0 0.5169,0.6435900000000001 C42.6592800012207,18.98920926940918 42.470880001220706,18.944579269409182 42.267030001220704,18.90398926940918 zm0.24575000000000002,-0.6474300000000001 c-0.35361000000000004,-0.49817000000000006 -0.6884700000000001,-0.9680000000000001 -1.0859,-0.89441 a0.12021000000000001,0.12021000000000001 0 0 0 -0.08630000000000002,0.1706 c0.06200000000000001,0.12844000000000003 0.15052000000000001,0.28394 0.24600000000000002,0.44556000000000007 a2.91486,2.91486 0 0 0 -1.4448100000000001,-0.6345000000000001 l0.04418000000000001,-0.025820000000000003 a6.97411,6.97411 0 0 1 2.28855,0.14328000000000002 l0.056280000000000004,0.008080000000000002 c-0.029060000000000006,0.012660000000000001 -0.06336000000000001,0.018670000000000003 -0.07512000000000002,0.04960000000000001 a0.1203,0.1203 0 0 0 0.03649,0.13591000000000003 a2.83914,2.83914 0 0 1 0.402,0.91106 c0.03642,0.10923000000000002 0.07094,0.21284000000000003 0.10452000000000002,0.30659000000000003 A4.87578,4.87578 0 0 1 42.512780001220705,18.25657926940918 zm1.303,1.1561 a4.1778,4.1778 0 0 0 -0.454,-0.19859000000000004 a0.11691000000000001,0.11691000000000001 0 0 0 0.0006000000000000002,-0.10700000000000001 a3.65235,3.65235 0 0 1 -0.24000000000000002,-0.61731 a7.05848,7.05848 0 0 0 -0.25358,-0.6849400000000002 a5.44759,5.44759 0 0 1 1.121,1.31826 C43.9344400012207,19.22017926940918 43.878070001220706,19.317879269409183 43.815720001220704,19.412659269409183 z" id="svg_22"/><path d="M56.5921700012207,16.06168926940918 a0.34254000000000007,0.34254000000000007 0 0 0 -0.138,-0.20669 c-0.017370000000000007,-0.011370000000000003 -0.03762000000000001,-0.0018800000000000004 -0.05607000000000001,-0.009130000000000003 a1.6617700000000002,1.6617700000000002 0 0 0 -0.5214099999999999,-0.40159 c-0.005940000000000002,-0.01989 -0.003000000000000001,-0.04000000000000001 -0.010180000000000002,-0.059870000000000013 a0.12035,0.12035 0 0 0 -0.20065,-0.04172000000000001 c-0.012370000000000003,0.013130000000000003 -0.022120000000000004,0.028180000000000004 -0.03437000000000001,0.04136000000000001 a1.41652,1.41652 0 0 0 -0.25112,0.0018400000000000005 l0.0015000000000000005,-0.004450000000000001 a0.12069000000000002,0.12069000000000002 0 0 0 -0.021170000000000005,-0.11494000000000001 a0.11874000000000003,0.11874000000000003 0 0 0 -0.10900000000000001,-0.04255000000000001 a1.26442,1.26442 0 0 0 -0.517,0.19767 a2.99343,2.99343 0 0 1 -0.40616,-0.024280000000000003 c-0.033440000000000004,-0.0046500000000000005 -0.05714000000000001,-0.004760000000000001 -0.08922000000000004,-0.008780000000000003 l0.016210000000000002,-0.11482000000000002 a0.12024000000000001,0.12024000000000001 0 0 0 -0.19351000000000004,-0.11128000000000002 c-0.07261000000000001,0.05715000000000001 -0.13468,0.12566999999999998 -0.20183,0.18886000000000003 a4.70906,4.70906 0 0 0 -1.17,0.07890000000000001 a7.09049,7.09049 0 0 1 -1.00056,0.10948000000000001 a2.14765,2.14765 0 0 0 -1.8837300000000001,0.7473400000000001 l-0.007940000000000003,0.010590000000000002 a1.79867,1.79867 0 0 0 -0.28836000000000006,0.9661500000000001 a3.84784,3.84784 0 0 1 -0.5816400000000002,-1.6237000000000001 c-0.02345000000000001,-0.2775 -0.25768,-0.7493500000000001 -0.27849,-0.11917000000000003 a3.3120700000000003,3.3120700000000003 0 0 0 1.00488,2.3890000000000002 l0.0015500000000000006,0.004100000000000001 a0.6482100000000001,0.6482100000000001 0 0 0 0.8320000000000001,0.36827000000000004 a0.20206000000000002,0.20206000000000002 0 0 0 0.024720000000000002,-0.0058600000000000015 c0.6578200000000002,-0.23066 1.7548300000000001,-0.5812 2.5593500000000002,-0.8347300000000001 a4.45946,4.45946 0 0 1 1.89413,-0.22926000000000005 l0.09017000000000003,0.0045400000000000015 a1.00977,1.00977 0 0 1 0.6264000000000001,0.40900000000000003 l-0.08805000000000002,0.18172000000000002 l0.21644000000000005,0.10500000000000001 l0.040490000000000005,-0.08359000000000003 c0.09991000000000003,0.12964 0.19755000000000003,0.26443 0.29084000000000004,0.3973000000000001 a5.19428,5.19428 0 0 0 0.4348600000000001,0.5664 a0.42754000000000003,0.42754000000000003 0 0 0 0.28381000000000006,0.15875000000000003 a0.20071000000000003,0.20071000000000003 0 0 0 0.07314000000000001,-0.016620000000000003 c0.20074000000000003,-0.08720000000000003 0.19493000000000005,-0.43957000000000007 0.16143000000000005,-1.00949 c-0.005070000000000001,-0.08368000000000002 -0.009680000000000003,-0.16267 -0.012000000000000002,-0.23111 a1.5920800000000002,1.5920800000000002 0 0 1 0.021140000000000003,-0.27891000000000005 C57.1485200012207,17.094719269409183 57.1864100012207,16.75941926940918 56.5921700012207,16.06168926940918 zm-0.6623300000000001,-0.3044700000000001 a1.578,1.578 0 0 1 0.17600000000000002,0.14300000000000002 c-0.020000000000000004,0.01974 -0.04000000000000001,0.04027000000000001 -0.05400000000000001,0.05700000000000001 l-0.17482,0.20894000000000004 A1.51539,1.51539 0 0 0 55.929840001220704,15.75720926940918 zm-0.6336800000000001,-0.12100000000000001 c0.04988000000000001,-0.005740000000000001 0.09069000000000003,-0.007080000000000002 0.13442,-0.010540000000000002 c-0.07300000000000001,0.08825000000000002 -0.15239000000000003,0.17200000000000001 -0.21970000000000003,0.26422999999999996 zm-1.09057,-0.009450000000000002 c0.032200000000000006,0.004000000000000001 0.05615000000000001,0.004180000000000001 0.08977000000000003,0.008830000000000003 c0.06670000000000002,0.009250000000000003 0.10923000000000002,0.004680000000000001 0.16976000000000005,0.010000000000000002 a1.88321,1.88321 0 0 0 -0.18630000000000002,0.21605000000000002 a2.47776,2.47776 0 0 0 -0.13623000000000002,0.21049000000000004 zm-1.47633,0.04093000000000001 a4.92358,4.92358 0 0 1 0.8972100000000001,-0.08132000000000002 a3.241,3.241 0 0 0 -0.28161,0.36962000000000006 a0.35746000000000006,0.35746000000000006 0 0 0 -0.07260000000000001,-0.18292000000000003 c-0.15052000000000001,-0.18446000000000004 -0.41781000000000007,-0.10737000000000001 -0.6021900000000001,0.04193000000000001 a2.59063,2.59063 0 0 0 -0.46979,0.49884000000000006 a4.35432,4.35432 0 0 0 -0.0002800000000000001,-0.48844000000000004 a0.11683000000000002,0.11683000000000002 0 0 0 -0.05582000000000001,-0.08000000000000002 C52.3622900012207,15.722769269409177 52.559230001220705,15.69566926940918 52.7292600012207,15.667719269409183 zm-2.66261,0.7655400000000001 c0.4151,-0.49800000000000005 0.55346,-0.6161000000000001 1.6312600000000002,-0.6531100000000001 c0.10925000000000001,-0.003750000000000001 0.19150000000000003,-0.014640000000000002 0.2867,-0.022240000000000003 a4.05824,4.05824 0 0 0 -0.8871900000000001,1.04907 l-0.003950000000000001,-0.03315000000000001 a1.67441,1.67441 0 0 1 0.0025500000000000006,-0.5872900000000001 a0.12029000000000002,0.12029000000000002 0 0 0 -0.20682,-0.10588 A11.292300000000001,11.292300000000001 0 0 0 49.8439600012207,17.435579269409182 A1.47491,1.47491 0 0 1 50.0666500012207,16.433259269409177 zm1.67406,1.07 c-0.44172000000000006,0.14415 -0.8672200000000001,0.2861 -1.208,0.40534000000000003 a0.9174599999999999,0.9174599999999999 0 0 1 -0.4938200000000001,-0.06579000000000003 l-0.0038100000000000013,-0.0025000000000000005 a0.22381000000000004,0.22381000000000004 0 0 1 -0.08250000000000002,-0.07271000000000001 c-0.006530000000000002,-0.010520000000000002 -0.008000000000000002,-0.026230000000000003 -0.014110000000000001,-0.037320000000000006 a11.81611,11.81611 0 0 1 0.8900900000000002,-1.21541 c0.003410000000000001,0.10300000000000001 0.015000000000000003,0.19827000000000003 0.025890000000000003,0.28800000000000003 a1.32335,1.32335 0 0 1 -0.0012600000000000003,0.4933100000000001 q-0.04495000000000001,0.10762000000000002 -0.08376000000000003,0.21800000000000003 a0.12028000000000001,0.12028000000000001 0 0 0 0.22026000000000004,0.09528000000000003 a1.15413,1.15413 0 0 0 0.09261000000000003,-0.23751000000000003 a3.82152,3.82152 0 0 1 0.8839200000000002,-1.27749 a4.19944,4.19944 0 0 1 -0.08042000000000002,0.7935099999999999 a2.577,2.577 0 0 0 -0.15463000000000002,0.5727800000000001 A0.11152000000000002,0.11152000000000002 0 0 0 51.7407200012207,17.50326926940918 zm2.04455,-0.5883400000000001 a5.41324,5.41324 0 0 0 -0.80816,0.19200000000000003 c-0.31169,0.09822000000000004 -0.6503300000000001,0.20671000000000003 -0.98724,0.3158100000000001 a4.3741900000000005,4.3741900000000005 0 0 0 0.12763,-0.46626 a2.39543,2.39543 0 0 1 0.70411,-0.95441 c0.09300000000000003,-0.07544000000000001 0.22428000000000003,-0.12551 0.26418,-0.07692000000000002 a0.22705000000000003,0.22705000000000003 0 0 1 0.024410000000000005,0.11685000000000001 a1.81162,1.81162 0 0 1 -0.04400000000000001,0.45668000000000003 a3.133,3.133 0 0 0 -0.11725000000000002,0.3523800000000001 a0.12033,0.12033 0 0 0 0.22615000000000002,0.08012000000000002 a2.04466,2.04466 0 0 0 0.12114000000000001,-0.36000000000000004 a3.00044,3.00044 0 0 1 0.64353,-0.9703499999999999 l0.026230000000000003,0.0025800000000000007 l-0.18355000000000002,1.29918 C53.781720001220705,16.90698926940918 53.7854200012207,16.910469269409177 53.785260001220706,16.91492926940918 zm0.553,-0.05300000000000001 c-0.09217000000000003,0.003170000000000001 -0.18937,0.009250000000000003 -0.29200000000000004,0.01913 a3.681,3.681 0 0 1 0.42740000000000006,-0.8779200000000001 a1.487,1.487 0 0 1 0.3452200000000001,-0.3365100000000001 c0.08211000000000002,-0.0009300000000000003 0.14765,-0.004090000000000001 0.21648000000000003,-0.009450000000000002 l-0.404,1.20171 C54.5183900012207,16.85890926940918 54.4096400012207,16.859469269409182 54.33827000122071,16.861919269409178 zm1.4938200000000001,0.45584 a1.08157,1.08157 0 0 0 -0.7158900000000001,-0.45580000000000004 l-0.19067,-0.0018800000000000004 a5.3110800000000005,5.3110800000000005 0 0 1 0.76151,-1.18235 a2.17365,2.17365 0 0 1 -0.3298100000000001,1.11427 a0.12035,0.12035 0 0 0 0.19953000000000004,0.13184 l0.67956,-0.8120700000000001 a0.44116000000000005,0.44116000000000005 0 0 1 0.04200000000000001,-0.03955000000000001 c0.020800000000000003,0.022490000000000007 0.03462000000000001,0.031790000000000006 0.056720000000000007,0.05650000000000001 l0.025790000000000004,0.030630000000000004 a0.5472,0.5472 0 0 1 -0.06445000000000001,0.20033 zm1.03446,0.06512000000000003 a1.79349,1.79349 0 0 0 -0.023400000000000008,0.31972000000000006 c0.0024100000000000007,0.07015 0.007270000000000001,0.15121000000000004 0.012230000000000003,0.23700000000000002 a3.48746,3.48746 0 0 1 0.004000000000000001,0.6813000000000001 a0.23772000000000001,0.23772000000000001 0 0 1 -0.013730000000000004,0.04670000000000001 a1.3639100000000002,1.3639100000000002 0 0 1 -0.10251,-0.10769000000000002 a4.48853,4.48853 0 0 1 -0.37555000000000005,-0.5058400000000001 c-0.11879000000000003,-0.16906000000000004 -0.24128000000000002,-0.35356000000000004 -0.36968000000000006,-0.52681 l0.515,-1.06261 c0.011290000000000003,-0.023290000000000005 0.022200000000000004,-0.054320000000000014 0.03409000000000001,-0.08148000000000001 A1.11083,1.11083 0 0 1 56.8665500012207,17.38287926940918 z" id="svg_23"/><path d="M37.9323000012207,15.065739269409178 c0.8506500000000001,0.8471200000000001 5.45209,1.8361800000000001 5.94153,1.8486000000000002 c0.09465000000000003,0.0024000000000000007 0.22694000000000006,-0.15561000000000003 -0.33475000000000005,-0.3544800000000001 c-1.16994,-0.41424 -2.94942,-0.56758 -4.97622,-1.3718700000000001 A3.17875,3.17875 0 0 0 37.9323000012207,15.065739269409178 z" id="svg_24"/><path d="M55.3443200012207,13.505579269409182 c-0.8086700000000001,0.8872900000000001 -4.76283,1.5790000000000002 -5.232,1.6612200000000001 c-0.22743000000000005,0.03987000000000001 -0.18976000000000004,-0.13926000000000002 0.28136000000000005,-0.3346200000000001 c1.06847,-0.4430700000000001 2.80812,-0.55435 4.324,-1.18344 A1.67348,1.67348 0 0 1 55.3443200012207,13.505579269409182 z" id="svg_25"/><path d="M93.38488000122071,59.18085926940918 l0.6337900000000002,-2.2959 a0.74541,0.74541 0 0 1 0.17871000000000004,-0.30957000000000007 c0.22363000000000002,-0.25488000000000005 2.5918,-2.8457 2.5918,-2.8457 c0.09375000000000003,-0.09766000000000004 0.918,-0.97852 0.8886700000000002,-1.6796900000000003 a0.7390000000000001,0.7390000000000001 0 0 0 -0.24900000000000003,-0.53613 h-0.0010000000000000002 a1.1333,1.1333 0 0 0 -1.6543,0.125 c-0.18164000000000002,0.15820000000000004 -1.9043,1.8544900000000002 -2.77832,2.71582 c0.457,-0.9472700000000001 1.5351599999999999,-3.14258 2.15625,-4.40332 a2.77469,2.77469 0 0 0 0.20700000000000002,-1.72852 a0.73236,0.73236 0 0 0 -0.41113,-0.40723 a1.24276,1.24276 0 0 0 -1.6171900000000001,0.7880900000000001 c-0.21191000000000004,0.3994100000000001 -2.00488,3.6992200000000004 -2.49512,4.60059 c0.22852000000000003,-1.14941 1.0957000000000001,-5.34473 1.10059,-5.374 a2.07523,2.07523 0 0 0 -0.10547000000000001,-1.50586 a0.99393,0.99393 0 0 0 -0.7255900000000001,-0.43750000000000006 a1.2496,1.2496 0 0 0 -0.97754,0.22461000000000003 a1.32856,1.32856 0 0 0 -0.458,0.82031 l-1.208,5.77148 a0.8720000000000001,0.8720000000000001 0 0 1 -0.12300000000000001,0.08887000000000002 l-0.0029300000000000007,-0.023440000000000006 c-0.05273000000000001,-0.5986300000000001 -0.6396500000000002,-5.33008 -0.6680000000000001,-5.5498 a1.07156,1.07156 0 0 0 -1.2666,-0.8437500000000001 a1.13412,1.13412 0 0 0 -0.94238,1.30078 l0.32715000000000005,5.35645 a3.09661,3.09661 0 0 1 -0.053710000000000015,0.80566 a7.17082,7.17082 0 0 1 -0.32739000000000007,0.91986 c-0.8067000000000001,-2.20923 -2.55609,-4.54456 -7.19348,-6.75281 c-4.17828,-1.98975 -16.67249,-4.88641 -20.97321,-7.39 c0.13574000000000003,-0.3280600000000001 0.27032000000000006,-0.65741 0.3853100000000001,-1.00305 c0.3308700000000001,-0.9946900000000001 0.7714799999999999,-2.44745 1.15338,-4.12628 a1.74058,1.74058 0 0 0 0.91144,-0.6536300000000002 c0.07715000000000001,-0.09375000000000003 0.09570000000000004,-0.22949000000000006 0.13184,-0.5566400000000001 c0.0058600000000000015,-0.054690000000000016 0.013670000000000003,-0.12300000000000001 0.022460000000000008,-0.18945000000000004 l0.007810000000000002,0.0058600000000000015 c0.20800000000000002,0.17285 0.42578000000000005,0.35352000000000006 0.64551,0.21875000000000003 a2.05252,2.05252 0 0 0 0.42578000000000005,-0.3808600000000001 a2.36689,2.36689 0 0 1 0.51465,-0.4502 a0.25022,0.25022 0 0 0 0.11621000000000002,-0.26953 a21.85514,21.85514 0 0 1 -0.32520000000000004,-2.39844 c-0.055540000000000006,-0.55841 -0.11072000000000003,-1.082 -0.18036000000000002,-1.5485799999999998 a3.26948,3.26948 0 0 0 0.3452800000000001,-1.035 a8.5178,8.5178 0 0 0 -0.16400000000000003,-4.0368 c-0.09000000000000002,-0.41144000000000003 -0.18689000000000003,-0.9996900000000001 -0.28125,-1.5415 c0.31726000000000004,-0.16888000000000003 0.6842700000000002,-0.37378000000000006 1.14069,-0.6092500000000001 a0.24025000000000002,0.24025000000000002 0 0 0 0.09155000000000002,-0.3443600000000001 c-0.25653,-0.39594000000000007 -2.087,-6.24719 -1.35968,-9.09576 c0.014470000000000002,-0.005620000000000001 0.03300000000000001,-0.009090000000000003 0.04663000000000002,-0.015000000000000003 A2.9432400000000003,2.9432400000000003 0 0 0 62.141720001220705,11.20551926940918 l0.002810000000000001,-0.0048800000000000015 a3.16714,3.16714 0 0 1 0.5896000000000001,-0.86011 a0.62136,0.62136 0 0 1 0.201,-0.07715000000000001 c0.86621,-0.27753 0.8902000000000001,-1.4878500000000001 0.88055,-1.7687400000000002 a0.6676900000000002,0.6676900000000002 0 0 0 -0.5122099999999999,-0.70752 c-0.9420000000000001,-0.35046000000000005 -1.95557,-0.58551 -2.9107700000000003,-0.8982500000000001 l-0.08575000000000002,-0.027890000000000005 a2.2186500000000002,2.2186500000000002 0 0 1 -1.48663,-1.05 c-0.08191000000000001,-0.11035 -0.16632000000000002,-0.22430000000000003 -0.257,-0.3336800000000001 a10.77656,10.77656 0 0 0 -3.12067,-2.3734100000000002 a15.614700000000001,15.614700000000001 0 0 1 -2.26251,-1.40875 c-1.6747400000000003,-1.34216 -3.13867,-1.415 -5.69873,-1.6486200000000002 c-2.88635,-0.26343 -10.13245,0.52643 -14.94824,4.1026 c-0.7468900000000002,0.5546300000000001 -1.46619,1.11066 -2.15631,1.7000000000000002 c-0.08673000000000003,0.03778 -0.13306,0.07538 -0.13036999999999999,0.11078000000000002 c-0.15454000000000004,0.13434000000000001 -0.31866000000000005,0.25793 -0.46844,0.39819000000000004 a12.19911,12.19911 0 0 0 -1.40955,1.6081500000000002 c-0.19806000000000004,0.05927000000000001 -0.23059000000000002,0.14374000000000003 -0.17236,0.23309000000000002 c-0.13281,0.18536000000000002 -0.26312,0.37207000000000007 -0.38574,0.55927 a5.20262,5.20262 0 0 0 -0.6407500000000002,1.6358000000000001 l-0.04584000000000001,0.015000000000000003 c-0.32623,0.11639000000000002 -0.23,0.22382000000000002 -0.028810000000000002,0.28387000000000007 c-0.05182000000000001,0.23706000000000002 -0.09906000000000004,0.47800000000000004 -0.14636000000000002,0.7200900000000001 c-0.046690000000000016,0.3723100000000001 -0.101,0.7403000000000001 -0.137,0.99561 c-0.17413,0.05408000000000001 -0.3495500000000001,0.10394 -0.5196500000000001,0.17047 c-0.4445200000000001,0.17389000000000002 -0.2511,0.89941 0.19940000000000005,0.72321 c0.09576000000000004,-0.03748 0.19543000000000005,-0.06311000000000001 0.2926,-0.09600000000000003 c0.0011600000000000002,0.43134000000000006 -0.003000000000000001,1.09332 -0.030090000000000006,1.8892200000000001 c-0.09015000000000002,0.06372000000000003 -0.18176000000000003,0.12683 -0.26672,0.19275000000000003 c-0.15051000000000003,0.11676000000000003 0.018680000000000002,0.21545000000000003 0.24900000000000003,0.26312 c-0.020450000000000006,0.47321 -0.04932000000000001,0.97778 -0.08972000000000004,1.49829 a1.87323,1.87323 0 0 0 -0.42218000000000006,0.4057 c-0.08447000000000002,0.11300000000000002 0.12018000000000001,0.22052000000000002 0.36371000000000003,0.26794 a23.65174,23.65174 0 0 1 -0.40155,2.71625 a0.8284,0.8284 0 0 1 -0.269,0.10950000000000001 c-0.3034700000000001,0.05621000000000001 -0.09235000000000002,0.20605 0.17633000000000001,0.30591000000000007 a8.699,8.699 0 0 1 -0.40369,1.25073 a0.27928000000000003,0.27928000000000003 0 0 0 0.011600000000000003,0.30774 a2.19634,2.19634 0 0 0 1.40228,0.7621500000000001 a2.58948,2.58948 0 0 0 -0.07568000000000001,1.61517 a32.05964,32.05964 0 0 0 1.5047000000000001,5.31439 A5.16089,5.16089 0 0 0 30.171720001220702,32.61750926940918 a2.34236,2.34236 0 0 0 0.5829500000000001,0.28693 c0.16071000000000005,0.6262800000000001 0.6608900000000002,2.5540000000000003 1.17755,4.27545 a0.17048000000000002,0.17048000000000002 0 0 0 0.08200000000000002,0.10547000000000001 a0.16179000000000004,0.16179000000000004 0 0 0 0.13135,0.012700000000000003 c0.07617000000000002,0.0020000000000000005 0.28906000000000004,0.21387 0.39111000000000007,0.3164100000000001 c0.22021000000000004,0.21973000000000004 0.39453000000000005,0.39844000000000007 0.5888700000000001,0.3350000000000001 a0.27653,0.27653 0 0 0 0.17969000000000002,-0.18457 a0.39229,0.39229 0 0 0 0.06100000000000001,-0.29590000000000005 c0.07959000000000002,0.07324000000000001 0.16553000000000004,0.15430000000000002 0.23145000000000002,0.21680000000000002 a2.35066,2.35066 0 0 0 0.40088000000000007,0.3476600000000001 a2.5023299999999997,2.5023299999999997 0 0 0 0.8266600000000001,0.2406 a16.68283,16.68283 0 0 0 1.43921,2.21088 C33.5015800012207,42.26957926940918 17.431930001220703,46.831429269409185 16.8641200012207,47.05857926940918 a13.144,13.144 0 0 0 -4.98706,3.62146 c-0.0009200000000000004,-0.15289000000000003 0.008300000000000002,-0.25995 0.008790000000000003,-0.26483 l0.36963,-5.3369100000000005 a1.13686,1.13686 0 0 0 -0.93066,-1.31934 a1.079,1.079 0 0 0 -1.27686,0.85156 c-0.026370000000000008,0.20117 -0.6533200000000001,4.92676 -0.7109400000000001,5.52539 l-0.0024400000000000008,0.023440000000000006 a0.8844200000000001,0.8844200000000001 0 0 1 -0.12300000000000001,-0.08984000000000002 L8.055770001220703,44.31269926940918 a1.3489300000000002,1.3489300000000002 0 0 0 -0.45557000000000003,-0.8486300000000001 a1.25328,1.25328 0 0 0 -0.9751,-0.23242000000000002 a0.99435,0.99435 0 0 0 -0.7290000000000001,0.43164 a2.05054,2.05054 0 0 0 -0.12207000000000001,1.48535 c0.009280000000000004,0.04590000000000001 0.8422900000000001,4.25586 1.06055,5.40332 c-0.48100000000000004,-0.90234 -2.249,-4.22168 -2.45752,-4.62207 A1.24251,1.24251 0 0 0 2.7657200012207035,45.128129269409186 a0.7245900000000001,0.7245900000000001 0 0 0 -0.41406000000000004,0.40332000000000007 A2.78528,2.78528 0 0 0 2.5508900012207034,47.27457926940917 c0.6054700000000001,1.25586 1.665,3.459 2.11377,4.41016 c-0.8671900000000001,-0.8691400000000001 -2.58154,-2.585 -2.77783,-2.76074 a1.12493,1.12493 0 0 0 -1.6318400000000002,-0.11816000000000003 a0.7374900000000001,0.7374900000000001 0 0 0 -0.25391,0.5332 A3.04,3.04 0 0 0 0.873160001220703,51.02457926940917 c0.07422000000000002,0.08300000000000002 2.35254,2.61719 2.56836,2.86719 a0.7317300000000001,0.7317300000000001 0 0 1 0.18506000000000003,0.3466800000000001 l0.61523,2.291 c0.9707,2.60059 2.35107,3.4209 2.80127,3.6270000000000002 L7.230720001220703,61.201059269409186 l0.15430000000000002,0.8590700000000001 c-0.15137,0.10651000000000001 -0.30066000000000004,0.21344000000000005 -0.45056,0.32025000000000003 c-1.75739,1.25232 -3.39038,2.5022599999999997 -4.26154,3.17938 l-0.15039000000000002,0.11621000000000002 l1.5297200000000002,3.72339 l0.19812000000000002,0.48218000000000005 c-0.5061,0.39160000000000006 -0.8920900000000002,0.6135900000000001 -1.07892,0.7628800000000001 a16.48675,16.48675 0 0 0 1.035,2.82306 c0.045530000000000015,0.08429000000000003 0.09000000000000002,0.22510000000000002 0.13806000000000002,0.22510000000000002 H18.186330001220703 c-0.15149000000000004,0 -0.3274500000000001,-0.81055 -0.51709,-1.3428300000000002 c-0.8336200000000001,-2.33978 -2.53687,-5.88428 -3.019,-9.01483 c-0.04480000000000001,0.015200000000000003 -0.5906400000000002,0.20020000000000002 -0.9054599999999999,0.33521000000000006 c-0.15021000000000004,0.06439000000000002 -0.30500000000000005,0.135 -0.46307000000000004,0.21008000000000002 A36.51213,36.51213 0 0 0 8.712510001220704,66.62157926940918 c-0.15200000000000002,0.10382000000000001 -0.3018800000000001,0.20685 -0.45209,0.31116000000000005 c-1.11548,0.77466 -2.15723,1.54163 -3.02307,2.19568 c-0.19891000000000006,0.15027000000000001 -0.3983200000000001,0.30100000000000005 -0.57611,0.43713 l-0.19836000000000004,-0.48279 L3.129990001220703,65.83808926940918 c1.19055,-0.9217500000000001 2.41736,-1.82831 3.6080900000000002,-2.6820700000000004 c0.24792000000000003,-0.1778 0.50385,-0.3684700000000001 0.7469500000000001,-0.5396700000000001 c0.15186000000000002,-0.10693000000000001 0.3018800000000001,-0.21161000000000002 0.45122999999999996,-0.31549000000000005 a42.16906,42.16906 0 0 1 4.2868,-2.7023900000000003 q0.24900000000000003,-0.12735 0.46045,-0.22052000000000002 a1.6444400000000001,1.6444400000000001 0 0 1 0.86346,-0.21857000000000001 a25.18872,25.18872 0 0 1 1.0094,3.69476 c0.03595,0.15527000000000002 0.10693000000000001,0.46387000000000006 0.10900000000000001,0.47247000000000006 c0.04688000000000001,-0.006100000000000002 0.07166000000000002,0.09521000000000003 0.07166000000000002,0.09521000000000003 s1.8704800000000001,4.6897 3.16907,7.764 L18.599720001220703,67.64301926940918 V73.38117926940917 c0,0.13159 0.07727000000000002,0.31140000000000007 0.11749000000000002,0.31140000000000007 H36.7705600012207 c-0.23358,-7 -0.03857000000000001,-17.68585 0.012760000000000002,-25.26318 A56.12542,56.12542 0 0 0 38.31237000122071,54.42757926940918 a0.3959000000000001,0.3959000000000001 0 0 0 0.33154000000000006,0.265 h0.016600000000000004 a0.39174000000000003,0.39174000000000003 0 0 0 0.3344700000000001,-0.22400000000000003 c0.7274200000000001,-1.4367100000000002 3.01044,-2.9621 5.00067,-4.2583 c0.49072000000000005,0.7121000000000001 1.41107,1.9936500000000001 1.41107,1.9936500000000001 S43.4149700012207,65.69257926940918 42.61596000122071,73.69257926940918 h8.95538 c-0.3349000000000001,-8 -1.48273,-21.5423 -1.48273,-21.5423 a23.51634,23.51634 0 0 0 1.9787,-2.23822 a17.61955,17.61955 0 0 1 3.58636,3.786 c0.19409000000000004,0.3263500000000001 0.5906400000000002,0.30640000000000006 0.6777300000000002,0.035640000000000005 a51.43285,51.43285 0 0 0 1.07446,-6.89044 C57.4271700012207,54.535109269409176 56.7961900012207,66.69257926940918 56.1426300012207,73.69257926940918 H76.6790000012207 l0.10211,-5.50659 L77.5303800012207,73.69257926940918 h2.34253 c1.1799300000000001,-2.92187 2.98914,-8.19879 3.02362,-8.28839 c0.06061000000000002,-0.15759000000000004 0.13049000000000002,-0.27686000000000005 0.12982,-0.28265 c0.13745000000000002,-1.04443 0.33093000000000006,-2.4234 0.38200000000000006,-2.9699999999999998 c0.20526000000000003,-0.15027000000000001 0.71552,-0.11737000000000002 1.44543,0.057310000000000014 c0.15082,0.036070000000000005 0.31494000000000005,0.08081 0.48383000000000004,0.12872 c0.506,0.14343000000000003 1.0914300000000001,0.33954000000000006 1.73352,0.5761700000000001 c0.83026,0.30600000000000005 1.75543,0.6810000000000002 2.73718,1.10614 c0.15668,0.06787000000000001 0.31177000000000005,0.13434000000000001 0.47107000000000004,0.20465 c1.52594,0.6733400000000002 3.162,1.45325 4.7569,2.26782 l-1.19385,3.847 c-0.22717,-0.14874000000000004 -0.45648000000000005,-0.29944000000000004 -0.7085,-0.4671 c-0.98425,-0.65436 -2.16888,-1.43634 -3.50647,-2.18427 c-0.15027000000000001,-0.08400000000000002 -0.3084100000000001,-0.16534000000000004 -0.46271,-0.24823000000000003 q-0.7289400000000001,-0.39175000000000004 -1.51318,-0.7520800000000001 a20.63929,20.63929 0 0 0 -3.13306,-1.1521 c-0.16150000000000003,-0.04443000000000001 -0.3173800000000001,-0.09882000000000003 -0.48114,-0.13885 c-0.32600000000000007,-0.07965000000000001 -0.6634500000000001,-0.13287 -0.99792,-0.19318000000000002 l-0.02338000000000001,-0.00427 l0.008910000000000001,-0.06750000000000002 a62.22276,62.22276 0 0 1 -2.446,8.6441 L94.3217200012207,73.69257926940918 c0.22449000000000005,-1 0.40881000000000006,-1.9306 0.51819,-2.7510000000000003 c-0.16800000000000004,-0.09717000000000003 -0.36163,-0.20935 -0.552,-0.32977000000000006 l-0.008060000000000001,0.0008500000000000003 l1.2963900000000002,-4.17694 a0.24969000000000002,0.24969000000000002 0 0 0 -0.125,-0.29443 c-0.77515,-0.3978300000000001 -2.84052,-1.43646 -5.07733,-2.4201 l0.17206000000000002,-0.91376 C90.9981600012207,62.604319269409174 92.3858500012207,61.794139269409186 93.38488000122071,59.18085926940918 zM16.847720001220704,50.367379269409184 a0.49866000000000005,0.49866000000000005 0 0 1 -0.25928,0.40430000000000005 a4.28566,4.28566 0 0 0 -1.0376,1.15723 a7.41056,7.41056 0 0 0 -1.03363,2.28607 c-0.05780000000000001,0.24414000000000002 -0.09700000000000003,0.45441000000000004 -0.12494000000000001,0.6115700000000001 l-0.026370000000000008,0.14587 a5.82224,5.82224 0 0 1 -1.1915900000000001,2.37744 c-0.6960000000000002,0.6831700000000002 -1.04028,1.0481 -1.04028,1.0481 a0.25049,0.25049 0 0 0 -0.05988000000000001,0.23425 l0.11600000000000002,0.4434800000000001 c-0.026310000000000007,0.012940000000000002 -0.05823000000000001,0.03253000000000001 -0.08500000000000002,0.04600000000000001 l0.00006000000000000002,0.0003100000000000001 l-0.021790000000000004,0.011410000000000002 a35.16438,35.16438 0 0 0 -4.127,2.62085 L7.940720001220702,61.672869269409176 c-0.035,0.024170000000000004 -0.06952000000000003,0.04663000000000002 -0.10449000000000001,0.07092000000000001 l-0.31183000000000005,-1.7356600000000002 l-0.013550000000000003,-0.07532000000000001 a0.25216,0.25216 0 0 0 -0.16846000000000005,-0.19336000000000003 c-0.015620000000000002,-0.0058600000000000015 -1.5752000000000002,-0.55371 -2.62451,-3.3623000000000003 L4.117300001220703,54.15057926940918 c-0.0007900000000000002,-0.008910000000000001 -0.0045200000000000014,-0.030640000000000004 -0.009400000000000002,-0.05426000000000001 a1.2241900000000001,1.2241900000000001 0 0 0 -0.28600000000000003,-0.52875 c-0.22168000000000002,-0.25684 -2.5786100000000003,-2.8789100000000003 -2.5786100000000003,-2.8789100000000003 l-0.003910000000000001,-0.0048800000000000015 a2.5883599999999998,2.5883599999999998 0 0 1 -0.73755,-1.3134800000000002 l-0.0012200000000000004,-0.0058600000000000015 a0.23853000000000002,0.23853000000000002 0 0 1 0.08252000000000002,-0.18164000000000002 c0.3940000000000001,-0.3408200000000001 0.6728500000000002,-0.15039000000000002 0.9931599999999999,0.13477 c0.18018,0.16113000000000002 2.19043,2.17383 3.228,3.21582 a0.25562999999999997,0.25562999999999997 0 0 0 0.16309000000000004,0.07324000000000001 a0.42054,0.42054 0 0 0 0.35352000000000006,-0.16600000000000004 A0.39373,0.39373 0 0 0 5.3827200012207035,52.244279269409176 a0.6442400000000001,0.6442400000000001 0 0 0 -0.05400000000000001,-0.31439000000000006 c-0.14600000000000002,-0.3476600000000001 -2.23877,-4.6875 -2.32178,-4.85937 a2.30688,2.30688 0 0 1 -0.19580000000000003,-1.3418 c0.013790000000000004,-0.03162000000000001 0.04169000000000001,-0.04089000000000001 0.06122000000000001,-0.061890000000000014 c0.022640000000000004,-0.024410000000000005 0.038000000000000006,-0.058780000000000006 0.07111,-0.0719 c0.42969,-0.16016000000000002 0.6880000000000002,-0.014650000000000002 0.9902299999999999,0.56543 c0.24170000000000003,0.46484000000000003 2.57959,4.85254 2.57959,4.85254 a0.23815,0.23815 0 0 0 0.05566000000000001,0.07031 c0.10907000000000001,0.09692000000000003 0.38678000000000007,0.3029200000000001 0.6278100000000001,0.17316 l0.005490000000000001,-0.0012800000000000003 c0.16064000000000003,-0.09082000000000003 0.21729000000000004,-0.27832000000000007 0.16748000000000005,-0.55859 c-0.10352000000000001,-0.5840000000000001 -1.06445,-5.43848 -1.10986,-5.66406 a1.5906700000000003,1.5906700000000003 0 0 1 0.05322000000000001,-1.09277 a0.47267000000000003,0.47267000000000003 0 0 1 0.28693,-0.18433000000000002 a0.5990000000000001,0.5990000000000001 0 0 1 0.08856000000000003,-0.027590000000000007 a0.787,0.787 0 0 1 0.5966800000000001,0.12400000000000001 a0.8597300000000001,0.8597300000000001 0 0 1 0.27637000000000006,0.53418 l1.17529,5.85938 a0.25006,0.25006 0 0 0 0.06543000000000002,0.125 a1.10368,1.10368 0 0 0 0.47412000000000004,0.29907000000000006 a0.43400000000000005,0.43400000000000005 0 0 0 0.25342000000000003,-0.006100000000000002 c0.12207000000000001,-0.04200000000000001 0.27393,-0.16016000000000002 0.30518000000000006,-0.47949 c0.05615000000000001,-0.5898400000000001 0.70215,-5.458 0.70557,-5.4873 a0.5770000000000001,0.5770000000000001 0 0 1 0.7077000000000001,-0.4433600000000001 a0.7406700000000002,0.7406700000000002 0 0 1 0.07922000000000003,0.023560000000000008 c0.47534000000000004,0.13245 0.43774,0.6790000000000002 0.4298700000000001,0.7547600000000001 l-0.37012000000000006,5.34375 a3.84543,3.84543 0 0 0 0.037410000000000006,0.83936 c0.006650000000000001,0.04000000000000001 0.009090000000000003,0.07867000000000002 0.017760000000000005,0.11865000000000002 a3.76806,3.76806 0 0 0 0.11084000000000001,0.37445000000000006 c0.10669000000000002,0.29773 0.24414000000000002,0.6300700000000001 0.33429000000000003,0.8396000000000001 l-0.013060000000000002,0.0053100000000000005 l0.015200000000000003,0.03748 q-0.30100000000000005,0.10547000000000001 -0.56543,0.22168000000000002 a5.02745,5.02745 0 0 0 -1.33545,0.81445 c-0.07281,0.062070000000000014 -0.12152000000000002,0.12683 -0.18610000000000002,0.19000000000000003 c-0.07251,0.07092000000000001 -0.14624000000000004,0.14154000000000003 -0.20900000000000002,0.21338000000000001 a3.17582,3.17582 0 0 0 -0.78644,1.6740000000000002 a2.78367,2.78367 0 0 0 0.013120000000000001,0.8972800000000001 a0.23540000000000003,0.23540000000000003 0 0 0 0.25049,0.18848000000000004 c0.011660000000000002,-0.0003700000000000001 0.019530000000000002,-0.010070000000000003 0.030820000000000004,-0.012000000000000002 a0.24485,0.24485 0 0 0 0.20648000000000002,-0.19208000000000003 a1.41459,1.41459 0 0 0 -0.0063500000000000015,-0.35449 a1.3464,1.3464 0 0 1 -0.008790000000000003,-0.24800000000000003 a2.95017,2.95017 0 0 1 0.88721,-1.83966 c0.03717000000000001,-0.03674 0.07050000000000001,-0.07990000000000001 0.10889000000000001,-0.11444000000000001 a4.91873,4.91873 0 0 1 1.32227,-0.7959 c0.20068,-0.08200000000000002 0.38379,-0.14355 0.53223,-0.19238000000000002 l0.11084000000000001,0.15625000000000003 l0.005370000000000001,0.006840000000000002 l0.05566000000000001,0.07715000000000001 a0.24700000000000003,0.24700000000000003 0 0 0 0.24658000000000002,0.10059000000000001 c0.09326000000000004,-0.016600000000000004 0.14941000000000004,-0.022460000000000008 0.15430000000000002,-0.022460000000000008 a0.24979000000000004,0.24979000000000004 0 0 0 0.21240000000000003,-0.16500000000000004 a4.6881,4.6881 0 0 1 3.32324,-3.292 a0.9079200000000001,0.9079200000000001 0 0 1 0.55566,0.23438 l0.0067100000000000016,0.013670000000000003 A0.26082000000000005,0.26082000000000005 0 0 1 16.847720001220704,50.367379269409184 zm42.90277,-18.2356 a7.2058,7.2058 0 0 0 -0.25006,1.355 c-0.10541,0.10486000000000001 -0.13586,0.32178000000000007 -0.1781,0.70331 a1.61084,1.61084 0 0 0 -0.019530000000000002,0.30646000000000007 a1.60583,1.60583 0 0 1 -0.40039,0.3834800000000001 a32.699600000000004,32.699600000000004 0 0 0 0.6780000000000002,-5.12012 c0.06800000000000002,0.024600000000000004 0.14038,-0.06732000000000002 0.21661000000000002,-0.06732000000000002 h0.010000000000000002 A6.612,6.612 0 0 1 59.750540001220706,32.13178926940918 zm0.47107000000000004,1.61853 c-0.017880000000000004,-0.014710000000000003 -0.038000000000000006,-0.030000000000000006 -0.05255000000000001,-0.042110000000000015 a1.3453700000000002,1.3453700000000002 0 0 0 -0.31854000000000005,-0.21655000000000002 a10.12578,10.12578 0 0 1 0.27167,-1.2829000000000002 a6.274,6.274 0 0 0 0.016000000000000004,-2.28351 a1.25424,1.25424 0 0 0 0.16040000000000004,-0.03300000000000001 A12.11244,12.11244 0 0 1 60.221610001220704,33.75031926940918 zm0.3643200000000001,-0.19244000000000006 c0.059630000000000016,-0.7407800000000001 0.17664000000000002,-1.4541 0.2005,-2.169 c0.06494000000000001,0.6190000000000001 0.13538,1.23407 0.24100000000000002,1.7607400000000002 A3.05689,3.05689 0 0 0 60.5859300012207,33.55787926940918 zm0.014530000000000003,-3.80884 l0.004940000000000002,-0.003600000000000001 l0.006840000000000002,0.05164000000000001 C60.607650001220705,29.781019269409178 60.603930001220704,29.76496926940918 60.6004500012207,29.74903926940918 zM61.659720001220705,21.71381926940918 a3.1578,3.1578 0 0 1 -2.486,0.8965500000000001 a0.8747500000000001,0.8747500000000001 0 0 1 -0.4904800000000001,-0.457 c0.31900000000000006,-0.42712000000000006 0.38470000000000004,-0.6786500000000002 0.3845800000000001,-1.83466 c0,-0.15662 -0.012880000000000003,-0.35693 -0.03259000000000001,-0.54358 c0.0018900000000000004,-0.0004900000000000002 -0.019650000000000004,-0.11707000000000002 -0.052800000000000014,-0.28931000000000007 c0.04500000000000001,0.08295000000000001 0.08636000000000002,0.16327000000000003 0.12225000000000001,0.22925000000000004 c0.18909000000000004,0.3474100000000001 0.35706000000000004,0.7067900000000001 0.57458,1.038 a1.87606,1.87606 0 0 0 1.8210000000000002,0.9589200000000001 a0.48040000000000005,0.48040000000000005 0 0 0 0.13983,-0.03864000000000001 C61.6459800012207,21.68384926940918 61.6542900012207,21.70490926940918 61.659720001220705,21.71381926940918 zm-0.6351300000000001,-1.6964100000000002 c0.17664000000000002,0.5507200000000001 0.36249000000000003,1.0863 0.50354,1.42133 a0.45143,0.45143 0 0 0 -0.053530000000000015,-0.005490000000000001 c-0.7428600000000001,0.06183000000000002 -1.20862,-0.91248 -1.49475,-1.45441 a1.8974000000000002,1.8974000000000002 0 0 0 -1.02325,-1.051 a0.5255799999999999,0.5255799999999999 0 0 0 -0.08722000000000003,-0.017520000000000004 c-0.11670000000000003,-0.5863 -0.25934,-1.28308 -0.30615000000000003,-1.46234 c0.04773000000000001,0.021910000000000006 0.09363000000000003,0.04200000000000001 0.12927,0.05621000000000001 a3.2746,3.2746 0 0 1 0.57025,0.6155400000000001 c0.20900000000000002,0.27161 0.40546000000000004,0.55347 0.62848,0.8140000000000001 a2.5867500000000003,2.5867500000000003 0 0 0 1.0412,0.77618 C60.9848500012207,19.88916926940918 61.022720001220705,20.01691926940918 61.0245900012207,20.01740926940918 zm-0.21448000000000003,-0.7279100000000001 a4.28418,4.28418 0 0 1 -0.45166,-0.51617 c-0.22253000000000003,-0.27985000000000004 -0.42407000000000006,-0.57611 -0.6524000000000001,-0.85138 a1.7671100000000002,1.7671100000000002 0 0 0 -1.21167,-0.73346 c-0.20123000000000002,-0.7470700000000001 -0.40839000000000003,-1.4231 -0.53528,-1.83344 l-0.028560000000000006,-0.09460000000000003 c0.5416300000000001,0.17554000000000003 0.935,1.14948 1.25391,1.5591400000000002 a2.50733,2.50733 0 0 0 1.23822,0.89026 c0.023190000000000006,0.14374000000000003 0.04071000000000001,0.28259 0.06714000000000002,0.42900000000000005 c0.008540000000000002,0.04712000000000001 0.027280000000000006,0.12366000000000002 0.04565000000000002,0.19910000000000003 C60.595140001220706,18.545299269409178 60.7078100012207,18.93641926940918 60.8101100012207,19.289499269409177 zm-0.49664,-6.561 a8.58608,8.58608 0 0 0 -0.16724000000000006,1.6550900000000002 c-0.006000000000000002,0.35895000000000005 0.007870000000000002,0.7507300000000001 0.031190000000000006,1.15564 c-0.3798800000000001,-0.39624000000000004 -0.6057700000000001,-1.022 -0.9486700000000001,-1.40253 a2.17232,2.17232 0 0 0 -1.77148,-0.6606400000000002 c-0.024290000000000003,-0.10980000000000001 -0.045170000000000016,-0.21167 -0.060850000000000015,-0.30029 c-0.015380000000000003,-0.08673000000000003 -0.025940000000000005,-0.16077000000000002 -0.030270000000000005,-0.21851000000000004 c0.10614000000000001,0.010620000000000001 0.21558000000000002,0.029540000000000004 0.31970000000000004,0.035 a14.29906,14.29906 0 0 0 2.2948,-0.22217 c0.008000000000000002,-0.0010000000000000002 0.15192000000000003,-0.013180000000000002 0.3328200000000001,-0.04224000000000001 l-0.00012000000000000004,0.0006700000000000002 zm-0.10339000000000001,3.309 c0.036320000000000005,0.42944000000000004 0.09363000000000003,0.8826300000000001 0.16144000000000006,1.34552 a4.688000000000001,4.688000000000001 0 0 1 -1.176,-1.4578200000000001 a2.0346,2.0346 0 0 0 -1.26947,-0.9638700000000001 a0.45952000000000004,0.45952000000000004 0 0 0 -0.08319000000000003,-0.0007300000000000002 c-0.036500000000000005,-0.1275 -0.07629000000000002,-0.269 -0.11800000000000002,-0.42200000000000004 c-0.06836000000000002,-0.25085 -0.13879000000000002,-0.52087 -0.19983000000000004,-0.7726400000000001 C58.912340001220706,13.716379269409181 59.047660001220706,15.560579269409182 60.2100700012207,16.03748926940918 zM55.0578500012207,3.8373592694091805 a16.86722,16.86722 0 0 1 2.9325,2.30835 a9.64443,9.64443 0 0 0 2.0625,1.375 s0.16900000000000004,0.052310000000000016 0.41500000000000004,0.13036999999999999 a11.3151,11.3151 0 0 1 -6.74261,-4.60986 A10.19016,10.19016 0 0 1 55.0578500012207,3.8373592694091805 zM52.3948200012207,2.292579269409181 c2.01166,3.19965 5.93768,6.01971 9.81757,5.94452 c0.11963000000000003,0.04352000000000001 0.23535,0.08643000000000002 0.3404500000000001,0.12732 c0.78339,0.30463 0.5152,0.80841 0.030580000000000006,1.28522 c-3.62512,-0.5892900000000001 -7.28052,-1.7240600000000001 -9.6427,-4.6947 A18.38233,18.38233 0 0 0 49.5388100012207,1.211579269409178 A11.24262,11.24262 0 0 1 52.3948200012207,2.292579269409181 zm-4.21051,-1.332 c2.8520000000000003,1.50537 3.9973099999999997,4.95361 6.78687,6.62964 a20.83479,20.83479 0 0 0 7.23083,2.40393 c-0.10309000000000001,0.08514000000000002 -0.2066,0.16766000000000003 -0.3054200000000001,0.24530000000000002 a2.30083,2.30083 0 0 0 -0.49670000000000003,0.55115 a21.6635,21.6635 0 0 1 -8.02332,-2.51392 c-2.6752900000000004,-1.3800700000000001 -3.81689,-3.491 -5.8412500000000005,-5.49536 a7.60368,7.60368 0 0 0 -3.5768400000000002,-1.8770000000000002 A17.87632,17.87632 0 0 1 48.1843100012207,0.9605792694091804 zm-5.65869,0.13678 a6.49367,6.49367 0 0 1 4.62653,2.2226 c0.6697400000000002,0.78876 1.19147,1.67041 1.9115,2.42334 a14.08368,14.08368 0 0 0 3.777,2.76874 a23.78175,23.78175 0 0 0 8.30829,2.70294 a1.32118,1.32118 0 0 1 -0.21167,0.36072000000000004 a3.13028,3.13028 0 0 1 -1.369,0.47485000000000005 a0.7939400000000001,0.7939400000000001 0 0 0 -0.20239000000000001,-0.07312000000000002 a32.88,32.88 0 0 1 -8.41492,-2.41528 c-2.62292,-1.2876 -4.26337,-3.464 -6.38159,-5.36151 A9.22571,9.22571 0 0 0 39.6067200012207,1.7872492694091804 A23.82806,23.82806 0 0 1 42.5256200012207,1.0973692694091781 zm-4.66382,1.28583 c5.1181,-1.09973 8.13153,5.05652 12.1875,7.21252 a29.29584,29.29584 0 0 0 8.12958,2.5707400000000002 c-0.9978,0.025450000000000007 -1.8758500000000002,-0.04364000000000001 -1.98047,-0.019410000000000004 c-0.11066000000000002,0.025570000000000006 -0.90637,0.10846000000000001 -0.9815099999999999,0.11224000000000002 c-3.85175,0.19464000000000004 -6.56335,-0.6041900000000001 -9.36066,-3.19556 a26.54,26.54 0 0 0 -4.41467,-3.45581 A12.8161,12.8161 0 0 0 35.044120001220705,3.6427792694091785 A28.67157,28.67157 0 0 1 37.8618000012207,2.383189269409179 zm-3.61316,1.68951 c5.4741800000000005,-0.45892000000000005 8.64063,3.904 12.59393,6.82666 a10.10792,10.10792 0 0 0 6.02075,1.796 c-1.3330000000000002,0.2063 -2.56958,0.39050000000000007 -2.6473400000000002,0.39276000000000005 q-0.45044,0.013280000000000004 -0.86328,0.015500000000000003 c-6.03381,-1.6894500000000001 -10.97723,-8.49976 -17.46759,-7.60663 C32.6727200012207,4.9696792694091805 33.461410001220706,4.504839269409178 34.2486500012207,4.072709269409181 zM31.132310001220702,6.088879269409176 c4.3288,-1.22083 8.625,2.45844 11.954,4.69366 a20.17193,20.17193 0 0 0 4.22089,2.23254 a8.63431,8.63431 0 0 1 -2.44305,-0.5796500000000001 a12.18721,12.18721 0 0 0 -2.3877,-0.6336100000000001 c-2.04584,-0.7230000000000001 -4.00214,-2.48578 -6.012,-3.267 a13.069,13.069 0 0 0 -6.89722,-0.82355 C30.038070001220703,7.18525926940918 30.630600001220706,6.55188926940918 31.132310001220702,6.088879269409176 zm-2.54236,2.81744 c0.06274000000000002,-0.09546000000000003 0.17236,-0.26221 0.19080000000000003,-0.28961000000000003 c0.0027500000000000007,-0.004090000000000001 0.03583000000000001,-0.04340000000000001 0.05841000000000001,-0.07056000000000001 a1.10116,1.10116 0 0 0 0.49426000000000003,0.053890000000000014 c3.67255,-0.97217 6.85461,0.30463 9.992,2.15527 c0.64636,0.38129 1.28992,0.7973 1.96,1.15289 a5.56715,5.56715 0 0 0 -1.1655900000000001,0.42358000000000007 c-2.47021,-0.32526000000000005 -4.60156,-1.8696900000000003 -7.03186,-2.41553 a10.07519,10.07519 0 0 0 -5.09137,0.21533000000000002 C28.2733700012207,9.513079269409182 28.572800001220703,8.93232926940918 28.589950001220704,8.906329269409177 zm-1.02332,2.4683800000000002 a2.59764,2.59764 0 0 1 0.19757000000000002,-0.6936600000000002 c4.55859,-1.56122 7.57928,1.3956300000000001 11.67816,2.01764 c-0.82336,0.49835000000000007 -1.42883,1.00977 -1.7428000000000001,0.98767 a2.85811,2.85811 0 0 1 -0.4918800000000001,-0.10022000000000002 c-0.6917100000000002,-0.18457 -1.23206,-0.26257 -1.90533,-0.50507 c-0.61938,-0.22300000000000003 -1.4492800000000001,-0.51935 -2.04309,-0.80341 c-1.11084,-0.53149 -1.87506,-1.1308 -3.16791,-0.8952600000000001 a20.61884,20.61884 0 0 0 -2.45288,0.7543900000000001 C27.307790001220702,12.28057926940918 27.5006600012207,12.290109269409179 27.566640001220705,11.37470926940918 zm9.17126,2.78113 l-0.015320000000000002,0.023740000000000004 l-0.011470000000000003,-0.022770000000000006 zm-5.15778,4.79333 a5.12131,5.12131 0 0 0 -3.432,0.09900000000000003 l-1.30774,0.8447900000000002 c0.14044000000000004,-0.98114 0.19470000000000004,-1.89038 0.20215,-1.98956 c0.005000000000000001,-0.06714000000000002 0.010130000000000002,-0.12524000000000002 0.015000000000000003,-0.18640000000000004 a0.24049000000000004,0.24049000000000004 0 0 0 0.11853000000000002,-0.07336000000000001 c0.789,-1.05524 2.48846,-0.15814000000000003 3.57642,-0.09576000000000004 a4.32272,4.32272 0 0 0 0.9068,-0.057310000000000014 a4.0972100000000005,4.0972100000000005 0 0 0 -0.10321000000000001,1.04388 C31.554130001220706,18.59211926940918 31.564260001220703,18.74842926940918 31.580130001220702,18.949169269409182 zm-2.34552,-2.14844 a4.70626,4.70626 0 0 0 -1.21307,-0.15326000000000004 a2.85244,2.85244 0 0 0 -0.9096700000000001,0.16162 c0.012390000000000002,-0.32471000000000005 0.028200000000000003,-0.7661700000000001 0.04382000000000001,-1.23712 a0.41018000000000004,0.41018000000000004 0 0 0 0.18884000000000004,-0.05707000000000001 a3.3538200000000002,3.3538200000000002 0 0 1 3.13007,-0.79553 c0.5866100000000001,0.18524000000000004 1.12378,0.465 1.7262,0.6195700000000001 a8.754,8.754 0 0 0 3.59558,0.13983 a2.98469,2.98469 0 0 1 -0.51813,0.46667000000000003 a5.6930000000000005,5.6930000000000005 0 0 1 -2.57306,0.7622700000000001 a1.49729,1.49729 0 0 0 -0.29761000000000004,0.07568000000000001 A6.04461,6.04461 0 0 1 29.2346100012207,16.80072926940918 zm1.09784,-2.6846900000000002 a4.35236,4.35236 0 0 0 -3.15289,0.7016600000000001 c0.024660000000000005,-0.82159 0.041810000000000014,-1.56152 0.030000000000000006,-1.69653 c2.40161,-0.90668 3.6902500000000003,-1.13617 4.21332,-1.02716 c0.37177000000000004,0.07745 3.811,2.1037 5.28375,2.11035 c-0.15686000000000003,0.24982000000000001 -0.3244000000000001,0.5119 -0.50391,0.7660000000000001 a0.54013,0.54013 0 0 0 -0.1333,0.010740000000000003 C33.5881200012207,15.560579269409182 32.4627200012207,14.608469269409177 30.332450001220703,14.116039269409178 zm-4.14246,8.11041 a3.939,3.939 0 0 0 0.47028000000000003,-1.31372 a3.84842,3.84842 0 0 0 1.20251,-0.8329500000000001 a3.71829,3.71829 0 0 1 3.71515,-0.7020900000000001 c0.012760000000000002,0.004000000000000001 0.026310000000000007,0.004460000000000001 0.03931000000000001,0.007750000000000002 c0.03748,0.41412000000000004 0.08582000000000002,0.9035 0.12854000000000002,1.32281 a4.0928700000000005,4.0928700000000005 0 0 0 -2.58057,0.171 a5.50247,5.50247 0 0 0 -0.78229,0.5498000000000001 a6.87263,6.87263 0 0 1 -1.9826000000000001,0.95959 A1.84491,1.84491 0 0 1 26.189990001220703,22.22644926940918 zm0.84338,0.44700000000000006 a7.86581,7.86581 0 0 0 1.9079000000000002,-0.8659100000000001 a3.15258,3.15258 0 0 1 2.85028,-0.6550900000000002 c0.012630000000000002,0.12061000000000001 0.023860000000000006,0.22552000000000003 0.032470000000000006,0.3048100000000001 l0.013850000000000003,0.12805 c0.07648,0.70355 0.23553000000000002,2.1673 -0.08966000000000003,2.34381 c-0.09381000000000002,0.051330000000000015 -0.457,-0.04590000000000001 -1.07458,-0.454 A3.10434,3.10434 0 0 0 28.662160001220702,22.44857926940918 a1.73235,1.73235 0 0 0 -1.14154,0.24600000000000002 c-0.009000000000000003,0.006100000000000002 -0.016000000000000004,0.014220000000000002 -0.024780000000000003,0.020450000000000006 A2.23042,2.23042 0 0 1 27.033370001220703,22.673409269409177 zm5.19769,14.28479 c-0.44678000000000007,-1.5 -0.8793900000000001,-3.14258 -1.07959,-3.916 a0.83621,0.83621 0 0 0 0.23419,0.05000000000000001 c0.57806,1.31805 0.6272000000000001,2.85889 1.25452,4.14032 A1.01627,1.01627 0 0 0 32.2310700012207,36.95820926940918 zm1.02979,-0.0029300000000000007 a0.18600000000000003,0.18600000000000003 0 0 0 -0.04150000000000001,-0.0048800000000000015 a0.21957000000000002,0.21957000000000002 0 0 0 -0.13036999999999999,0.04300000000000001 c-0.08948000000000002,0.07500000000000001 -0.08728000000000002,0.19700000000000004 -0.07745,0.36957000000000007 c-0.6838400000000002,-1.30969 -0.70251,-2.9292 -1.32056,-4.28387 c0.04800000000000001,-0.010250000000000002 0.09027000000000003,-0.030880000000000005 0.13616999999999999,-0.04529000000000001 c0.047420000000000004,-0.00525 0.09668000000000003,-0.0017100000000000006 0.14319,-0.010070000000000003 c0.022890000000000004,-0.004090000000000001 0.04200000000000001,-0.014100000000000001 0.06445000000000001,-0.018860000000000002 c0.5827000000000001,1.3067 0.6626000000000002,2.81592 1.36823,4.03369 A0.4126,0.4126 0 0 0 33.2608500012207,36.95527926940918 zm1.08533,0.8395400000000001 c-1.33563,-1.29047 -1.25793,-3.27393 -1.9969999999999999,-4.88184 a1.70346,1.70346 0 0 0 0.37610000000000005,-0.20361 a0.14158,0.14158 0 0 1 0.02484,0.006160000000000002 a20.30478,20.30478 0 0 0 1.8692000000000002,5.17133 C34.5382000012207,37.86365926940918 34.446520001220705,37.83338926940918 34.3461800012207,37.794809269409186 zM45.1292600012207,48.57142926940918 c-0.3397200000000001,0.22510000000000002 -0.7057500000000001,0.46088000000000007 -1.08252,0.70245 c-1.8710900000000001,1.2002 -4.13818,2.6552700000000002 -5.2793,4.14746 c-0.5496200000000001,-1.84552 -1.38873,-5.7290600000000005 -1.97345,-8.54785 c-0.0037800000000000012,-1.4942 -0.021910000000000006,-2.70526 -0.06274000000000002,-3.51111 c0.043330000000000014,-0.037660000000000006 0.07678000000000001,-0.06274000000000002 0.12360000000000002,-0.10510000000000001 a21.49387,21.49387 0 0 0 8.94769,6.41461 c0.03412000000000001,0.011900000000000003 0.06506000000000002,0.028380000000000006 0.09930000000000003,0.04000000000000001 C45.7111700012207,47.92652926940917 45.4618400012207,48.213639269409185 45.1292600012207,48.57142926940918 zm10.72363,4.32648 a20.82387,20.82387 0 0 0 -3.42633,-3.50116 c0.0011000000000000003,-0.04584000000000001 -0.028140000000000002,-0.06400000000000002 -0.07623000000000002,-0.06494000000000001 c-0.15350000000000003,-0.12842 -0.3018200000000001,-0.25018 -0.45154,-0.37146000000000007 a8.84052,8.84052 0 0 0 -1.64655,-1.43866 a19.34181,19.34181 0 0 0 2.88538,-1.59943 c0.06744000000000001,-0.04645000000000001 0.1366,-0.08887000000000002 0.20313,-0.13721000000000003 a11.99409,11.99409 0 0 0 3.40765,-3.728 C57.1185200012207,44.60199926940918 56.35094000122071,50.61857926940918 55.8528900012207,52.89789926940918 zm-4.77423,-6.42255 q-0.16635000000000003,0.08716000000000003 -0.3499100000000001,0.16187 c-0.05066000000000001,0.020690000000000004 -0.10608000000000001,0.037410000000000006 -0.15863000000000002,0.05652000000000001 c-0.07349000000000001,0.026730000000000004 -0.14545000000000002,0.054690000000000016 -0.22272000000000003,0.07831 c-0.07593000000000001,0.023250000000000007 -0.15735000000000002,0.04169000000000001 -0.23694000000000004,0.06177000000000001 c-0.05847000000000001,0.014770000000000004 -0.11481000000000001,0.03143000000000001 -0.17523000000000002,0.044370000000000014 c-0.09766000000000004,0.021000000000000005 -0.20087,0.036680000000000004 -0.30359,0.052800000000000014 c-0.046750000000000014,0.007390000000000002 -0.09161000000000002,0.016600000000000004 -0.13940000000000002,0.022890000000000004 c-0.11621000000000002,0.015380000000000003 -1.49255,0.016110000000000003 -1.5150000000000001,0.014280000000000003 c-0.17035,-0.014100000000000001 -0.34570000000000006,-0.028320000000000005 -0.5250900000000001,-0.053710000000000015 c-0.013310000000000002,-0.0018900000000000004 -0.026310000000000007,-0.0003100000000000001 -0.03973000000000001,-0.0022600000000000007 c-0.18677000000000002,-0.027220000000000005 -0.3784800000000001,-0.059330000000000015 -0.5748900000000001,-0.09937000000000003 l-0.022890000000000004,-0.003720000000000001 c-0.20142000000000002,-0.04150000000000001 -0.40800000000000003,-0.08942000000000003 -0.61951,-0.14500000000000002 l-0.009890000000000003,-0.0023200000000000004 c-0.3353900000000001,-0.08844000000000002 -0.6846300000000002,-0.19678000000000004 -1.04523,-0.3228800000000001 l-0.5898400000000001,-0.22845000000000004 c-0.17383,-0.06842000000000002 -0.3438700000000001,-0.13092 -0.52313,-0.20825000000000002 c-0.23792000000000002,-0.10217000000000001 -0.48633000000000004,-0.22290000000000004 -0.7337600000000001,-0.34143000000000007 c-0.15155000000000002,-0.07281 -0.3004200000000001,-0.1413 -0.45544,-0.22040000000000004 c-0.26239,-0.13361 -0.53345,-0.28363 -0.80615,-0.43600000000000005 c-0.10162000000000002,-0.05682000000000001 -0.19757000000000002,-0.10309000000000001 -0.30060000000000003,-0.16260000000000002 c-0.016480000000000005,-0.011470000000000003 -0.030940000000000006,-0.023320000000000007 -0.047360000000000006,-0.03479000000000001 c-0.15918000000000002,-0.09229000000000004 -0.3104200000000001,-0.16949000000000006 -0.47300000000000003,-0.26831000000000005 a11.82413,11.82413 0 0 1 -2.42474,-2.157 c-0.0188,-0.018680000000000002 -0.041440000000000005,-0.03912000000000001 -0.05994000000000001,-0.05762000000000001 c-0.29016000000000003,-0.32422000000000006 -0.5810000000000001,-0.6752900000000002 -0.8698700000000001,-1.03625 q-0.09750000000000003,-0.12186000000000001 -0.19458000000000003,-0.24567 c-0.5744,-0.73456 -1.13446,-1.5253299999999999 -1.6563700000000001,-2.33673 q-0.09183000000000002,-0.14273000000000002 -0.18195000000000003,-0.28595000000000004 c-0.25616,-0.40765 -0.50549,-0.8180000000000001 -0.7366300000000001,-1.22729 l-0.003420000000000001,-0.0063500000000000015 c-0.22766000000000003,-0.40338000000000007 -0.4354200000000001,-0.80328 -0.6321400000000001,-1.19855 q-0.07288,-0.14648000000000003 -0.14258,-0.29156000000000004 c-0.19019000000000003,-0.3961800000000001 -0.36877000000000004,-0.7877200000000001 -0.51892,-1.16327 l-0.002690000000000001,-0.007390000000000002 c-0.14764000000000002,-0.3698100000000001 -0.26532000000000006,-0.72113 -0.36755000000000004,-1.06116 c-0.025820000000000003,-0.08588000000000001 -0.04987000000000001,-0.17029000000000002 -0.07251,-0.25391 a7.01058,7.01058 0 0 1 -0.20166,-0.9528800000000001 c-0.012270000000000003,-0.09943000000000003 -0.34564000000000006,-1.42645 -0.35461000000000004,-1.6871900000000002 a10.77462,10.77462 0 0 1 -0.08300000000000002,1.58075 c-0.14441000000000004,0.37433000000000005 -0.5719000000000001,0.45447000000000004 -0.8221400000000001,0.49939000000000006 a1.96781,1.96781 0 0 1 -1.435,-0.32489000000000007 a4.75971,4.75971 0 0 1 -1.46747,-2.29034 a31.58625,31.58625 0 0 1 -1.482,-5.23437 a1.7466400000000002,1.7466400000000002 0 0 1 0.17188,-1.512 c0.007930000000000003,-0.008240000000000003 0.017400000000000006,-0.015200000000000003 0.025760000000000005,-0.023070000000000007 a1.16234,1.16234 0 0 1 0.91925,-0.23755 c0.6770000000000002,0.06256000000000002 2.75671,1.51422 3.06042,1.50372 a0.6652200000000001,0.6652200000000001 0 0 0 0.29968000000000006,-0.07941000000000001 c0.54633,-0.2968700000000001 0.46167,-1.17883 0.4365200000000001,-1.6903700000000002 c-0.027590000000000007,-0.561 -0.14990000000000003,-2.98169 -0.15552000000000002,-3.58655 c-0.004580000000000002,-0.48600000000000004 0.15808000000000003,-1.60553 0.5970000000000001,-1.66858 a4.88954,4.88954 0 0 0 2.4339,-0.5870000000000001 A21.36756,21.36756 0 0 0 37.489720001220704,14.383739269409183 s0.10486000000000001,-0.12195 0.013550000000000003,-0.00043000000000000015 a2.76012,2.76012 0 0 0 0.93854,-0.14331000000000002 a6.66231,6.66231 0 0 0 1.596,-0.80261 a4.66978,4.66978 0 0 1 2.05658,-0.8781700000000001 a4.40406,4.40406 0 0 1 2.16638,0.55011 a11.311350000000001,11.311350000000001 0 0 0 4.83972,0.9286500000000001 a69.01268,69.01268 0 0 0 7.30566,-1.1995200000000001 a0.22462000000000001,0.22462000000000001 0 0 1 0.11816000000000003,-0.006000000000000002 c0.12531,0.027000000000000007 0.24884000000000003,0.04980000000000001 0.3715200000000001,0.07062000000000002 a13.25168,13.25168 0 0 0 0.6176800000000001,2.4751 c0.6532000000000001,2.2002 1.62457,5.63855 0.70923,6.57166 a0.24333000000000002,0.24333000000000002 0 0 0 -0.04358000000000001,0.27734000000000003 a1.46525,1.46525 0 0 0 0.8447300000000001,0.8403900000000001 a1.61746,1.61746 0 0 0 0.5620700000000001,0.0708 a2.183,2.183 0 0 0 0.8699300000000001,-0.23889000000000002 c0.006770000000000002,-0.003720000000000001 0.21200000000000002,0.9859 0.30164,1.3947800000000001 a8.03477,8.03477 0 0 1 0.16156000000000004,3.84259 a2.07407,2.07407 0 0 1 -0.48621000000000003,1.14276 a0.7476700000000002,0.7476700000000002 0 0 1 -0.57452,0.18182 a0.40515,0.40515 0 0 1 -0.29962000000000005,-0.17157 c-0.057130000000000014,-0.08929000000000004 -0.22443000000000005,-2.4212 -0.32343000000000005,-2.04462 c-0.010070000000000003,0.03839000000000001 -0.029110000000000004,0.3380000000000001 -0.04907000000000001,0.70313 c-0.013370000000000003,0.24341000000000004 -0.027100000000000006,0.51587 -0.038880000000000005,0.7595200000000001 c-0.017700000000000004,0.3654200000000001 -0.031000000000000007,0.6658300000000001 -0.031920000000000004,0.70551 a36.43559,36.43559 0 0 1 -1.94934,10.04675 A12.11991,12.11991 0 0 1 51.078660001220705,46.47535926940918 zM90.2510900012207,62.38691926940918 a0.2518,0.2518 0 0 0 -0.17187,0.19336000000000003 l-0.17600000000000002,0.9352400000000001 c-0.98737,-0.42554000000000003 -1.992,-0.8304400000000001 -2.923,-1.15686 c-0.54395,-0.19073000000000004 -1.053,-0.3465000000000001 -1.52722,-0.47174 l0.15356000000000003,-0.5996100000000001 a0.251,0.251 0 0 0 -0.06152000000000001,-0.23535 s-0.34570000000000006,-0.36230000000000007 -1.0459,-1.042 a5.82121,5.82121 0 0 1 -1.20312,-2.37109 l-0.027340000000000007,-0.14746000000000004 a7.61216,7.61216 0 0 0 -1.16113,-2.9814499999999997 a4.28085,4.28085 0 0 0 -1.0293,-1.166 a0.49835000000000007,0.49835000000000007 0 0 1 -0.25586000000000003,-0.40625 a0.26512,0.26512 0 0 1 0.04200000000000001,-0.23053 a0.9569400000000001,0.9569400000000001 0 0 1 0.50293,-0.23242000000000002 a4.63917,4.63917 0 0 1 3.35059,3.32129 a0.25178,0.25178 0 0 0 0.21289000000000002,0.16687000000000002 a1.4096600000000001,1.4096600000000001 0 0 1 0.15039000000000002,0.023320000000000007 a0.24735000000000001,0.24735000000000001 0 0 0 0.25,-0.09894000000000003 l0.05957000000000001,-0.08264000000000002 l0.0058600000000000015,-0.009950000000000002 l0.11035,-0.15381000000000003 c0.07031,0.025760000000000005 0.13068,0.05286000000000001 0.19757000000000002,0.07910000000000002 a4.46479,4.46479 0 0 1 2.32294,1.6710000000000003 a2.98384,2.98384 0 0 1 0.22852000000000003,0.9054599999999999 a0.6096800000000001,0.6096800000000001 0 0 1 0.011720000000000003,0.13025 a0.78836,0.78836 0 0 0 0.017580000000000005,0.16089000000000003 c0.021480000000000006,0.11523000000000003 0.11914000000000002,0.10500000000000001 0.23633,0.10500000000000001 h0.009770000000000004 c0.11328000000000002,0 0.21289000000000002,0.023930000000000007 0.24219000000000002,-0.08643000000000002 a1.91608,1.91608 0 0 0 -0.28906000000000004,-1.4262700000000001 A3.865,3.865 0 0 0 85.76378000122071,55.19257926940918 a9.745000000000001,9.745000000000001 0 0 0 0.45605,-1.24707 a3.58236,3.58236 0 0 0 0.06445000000000001,-0.9506800000000001 l-0.32715000000000005,-5.36255 c-0.007810000000000002,-0.06934000000000001 -0.05762000000000001,-0.6803000000000001 0.51563,-0.76331 a0.5773900000000001,0.5773900000000001 0 0 1 0.7011700000000001,0.43085000000000007 c0.0058600000000000015,0.04883000000000001 0.61133,4.92291 0.6630900000000002,5.51276 c0.028320000000000005,0.31934000000000007 0.17969000000000002,0.43854000000000004 0.30176000000000003,0.48151000000000005 c0.30566000000000004,0.11133000000000001 0.6357400000000002,-0.19238000000000002 0.7285200000000001,-0.28613 a0.24927000000000002,0.24927000000000002 0 0 0 0.06738000000000001,-0.12494000000000001 l1.22754,-5.873 a0.84953,0.84953 0 0 1 0.27637000000000006,-0.50781 a0.79342,0.79342 0 0 1 0.5986300000000001,-0.11914000000000002 a0.49421000000000004,0.49421000000000004 0 0 1 0.37300000000000005,0.21387 a1.6204200000000002,1.6204200000000002 0 0 1 0.04000000000000001,1.11328 c-0.04200000000000001,0.20605 -1.043,5.05176 -1.1523400000000001,5.63574 c-0.05176000000000001,0.27930000000000005 0.0020000000000000005,0.46777 0.16211000000000003,0.55957 c0.23926000000000003,0.13770000000000002 0.52344,-0.07031 0.6347700000000002,-0.16600000000000004 a0.24617,0.24617 0 0 0 0.05664000000000001,-0.07031 s2.375,-4.36816 2.62012,-4.83105 c0.30762000000000006,-0.5781200000000001 0.56641,-0.7197300000000001 0.99414,-0.5566400000000001 a0.23018,0.23018 0 0 1 0.13184,0.13477 a2.29459,2.29459 0 0 1 -0.20117,1.32715 c-0.08984000000000002,0.18359000000000003 -2.21875,4.50586 -2.36719,4.85156 a0.50976,0.50976 0 0 0 0.0020000000000000005,0.5107400000000001 a0.43443000000000004,0.43443000000000004 0 0 0 0.35156000000000004,0.16992000000000004 a0.24881000000000003,0.24881000000000003 0 0 0 0.16500000000000004,-0.07227000000000001 c1.0459,-1.0332 3.07227,-3.0293 3.27832,-3.209 c0.29980000000000007,-0.2627 0.58008,-0.45117 0.9707,-0.10547000000000001 a0.23425,0.23425 0 0 1 0.08105000000000001,0.18164000000000002 a2.591,2.591 0 0 1 -0.7539100000000001,1.31738 s-2.37793,2.6025400000000003 -2.60352,2.85938 a1.12316,1.12316 0 0 0 -0.29100000000000004,0.5380900000000001 L92.91027000122071,59.02557926940918 C91.8301900012207,61.84784926940918 90.2657200012207,62.383009269409186 90.2510900012207,62.38691926940918 z" id="svg_26"/></g></svg>